<svg width="242" height="242" viewBox="0 0 242 242" fill="none" xmlns="http://www.w3.org/2000/svg">
<path d="M271.34 131.599L281.989 140.37L281.993 140.404L271.343 131.633L271.34 131.599ZM234.791 43.4032C261.611 65.5699 279.964 97.9427 283.514 135.316L269.812 136.618C266.619 103.013 250.167 73.9155 226.048 53.981L234.822 43.3656L234.791 43.4032ZM135.347 12.8572C172.721 9.30698 208.008 21.2675 234.791 43.4032L226.017 54.0186C201.935 34.1151 170.224 23.4051 136.618 26.5974L135.316 12.8948L135.347 12.8572ZM43.4341 61.5808C65.6007 34.7608 97.9735 16.4075 135.347 12.8572L136.649 26.5598C103.043 29.7522 73.9466 46.204 54.0121 70.3233L43.3965 61.5498L43.4341 61.5808ZM12.8881 161.024C9.33786 123.65 21.3016 88.3977 43.3998 61.5841L54.0153 70.3576C34.1151 94.4737 23.3674 126.155 26.5597 159.76L12.8571 161.062L12.8881 161.024ZM61.6117 252.938C34.7916 230.771 16.4384 198.398 12.8881 161.024L26.5907 159.723C29.783 193.328 46.2351 222.425 70.3544 242.359L61.5807 252.975L61.6117 252.938ZM161.055 283.483C123.681 287.034 88.4286 275.07 61.615 252.972L70.3887 242.356C94.5048 262.256 126.185 273.004 159.791 269.812L161.093 283.515L161.055 283.483ZM283.545 135.279C290.646 210.027 235.803 276.383 161.055 283.483L159.753 269.781C226.965 263.396 276.227 203.792 269.843 136.581L283.545 135.279ZM276.663 135.967L281.952 140.339L271.38 153.13L269.808 136.584L276.66 135.933L276.663 135.967ZM65.9829 247.648L61.615 252.972L65.9862 247.683L65.9829 247.648ZM276.694 135.93L271.405 131.558L281.977 118.767L283.549 135.313L276.697 135.964L276.694 135.93Z" fill="white"/>
<path d="M140.651 68.6937C184.534 64.5251 223.507 96.7366 227.676 140.619L213.973 141.921C210.521 105.575 178.299 78.9436 141.953 82.3963L140.651 68.6937ZM68.7258 155.718C64.5572 111.836 96.7687 72.8622 140.651 68.6937L141.953 82.3963C105.607 85.8489 78.9757 118.071 82.4284 154.417L68.7258 155.718ZM155.75 227.644C111.868 231.812 72.8944 199.601 68.7258 155.718L82.4284 154.417C85.881 190.763 118.103 217.394 154.449 213.941L155.75 227.644ZM227.676 140.619C231.845 184.502 199.633 223.475 155.75 227.644L154.449 213.941C190.795 210.489 217.426 178.267 213.973 141.921L227.676 140.619Z" fill="white"/>
<path d="M143.19 108.928C165.474 106.811 185.213 122.621 187.266 144.23C186.208 146.868 182.768 147.515 180.823 145.441L180.308 144.891C178.608 126.993 162.288 113.922 143.831 115.676L143.169 115.145C141.175 113.548 141.185 110.512 143.19 108.928Z" fill="#FC0C35"/>
</svg>
