<svg width="146" height="37" viewBox="0 0 146 37" fill="none" xmlns="http://www.w3.org/2000/svg">
<g clip-path="url(#clip0_1_958)">
<path d="M40.8836 0H22.2442C20.9675 0 19.9799 0.989296 19.9799 2.27735V21.7617H13.2009C11.9298 21.7617 10.9141 22.6805 10.9141 23.8164C10.9141 24.9522 11.9354 25.8795 13.2009 25.8795H22.2442C23.4872 25.8795 24.4721 24.8902 24.4721 23.6416V13.5796H35.5076C36.644 13.5796 37.5587 12.6607 37.5587 11.5249C37.5587 10.389 36.644 9.47018 35.5076 9.47018H24.4721V4.1122H40.8836C42.02 4.1122 42.9291 3.19337 42.9291 2.05751C42.9291 0.921652 42.0172 0.00281851 40.8836 0.00281851V0Z" fill="white"/>
<path d="M22.4445 32.8047H12.9635C11.8271 32.8047 10.918 33.7235 10.918 34.8594C10.918 35.9952 11.8299 36.9141 12.9635 36.9141H22.4445C23.5753 36.9141 24.49 35.9952 24.49 34.8594C24.49 33.7235 23.5753 32.8047 22.4445 32.8047Z" fill="white"/>
<path d="M11.8781 9.48413H2.39705C1.26067 9.48413 0.351562 10.403 0.351562 11.5388C0.351562 12.6747 1.26347 13.5935 2.39705 13.5935H11.8781C13.0089 13.5935 13.9236 12.6747 13.9236 11.5388C13.9236 10.403 13.0089 9.48413 11.8781 9.48413Z" fill="white"/>
</g>
<path d="M144.355 21.2587C143.341 21.2587 142.671 20.3585 142.671 18.9979V18.7367C142.671 17.3589 143.304 16.469 144.342 16.469C145.38 16.469 145.998 17.3899 145.998 18.723V18.9841C145.998 20.3448 145.399 21.2587 144.355 21.2587ZM144.355 20.788C145.097 20.788 145.474 20.173 145.474 18.9773V18.7161C145.474 17.6372 145.053 16.926 144.342 16.926C143.631 16.926 143.198 17.572 143.198 18.7299V18.991C143.198 20.173 143.65 20.788 144.355 20.788ZM141.705 21.2312C141.496 21.2312 141.324 21.0491 141.324 20.8121C141.324 20.575 141.496 20.3929 141.705 20.3929C141.913 20.3929 142.085 20.575 142.085 20.8121C142.085 21.0491 141.913 21.2312 141.705 21.2312ZM137.68 21.1969V21.0663L139.363 19.1113C139.75 18.6612 139.974 18.2351 139.974 17.7575C139.974 17.2352 139.697 16.9226 139.217 16.9226C138.737 16.9226 138.409 17.2215 138.322 17.9602H137.842C137.907 17.0463 138.412 16.4622 139.217 16.4622C140.021 16.4622 140.498 16.9707 140.498 17.7747C140.498 18.3485 140.164 18.9051 139.644 19.472L138.475 20.7262H140.52V21.19H137.68V21.1969Z" fill="white"/>
<path d="M53.8435 30.0472C54.439 30.0472 54.9098 29.525 54.9098 28.8722V24.4638H60.1848C60.7273 24.4638 61.1606 23.9794 61.1606 23.3884C61.1606 22.7974 60.7211 22.3129 60.1848 22.3129H54.9098V18.6365H60.9705C61.5129 18.6365 61.9463 18.152 61.9463 17.561C61.9463 16.9701 61.5067 16.4856 60.9705 16.4856H53.8435C53.2294 16.4856 52.7617 17.0079 52.7617 17.6779V28.8825C52.7617 29.5387 53.2356 30.0576 53.8435 30.0576V30.0472Z" fill="white"/>
<path d="M66.0042 24.5989L68.1523 19.153L70.3003 24.5989H66.0073H66.0042ZM74.1755 28.911C74.1755 28.7564 74.1413 28.5812 74.054 28.4094L69.5147 17.2426C69.2684 16.6447 68.8537 16.2805 68.2396 16.2805H68.1336C67.5194 16.2805 67.086 16.6482 66.8397 17.2426L62.3005 28.4094C62.2132 28.6018 62.1602 28.777 62.1602 28.9488C62.1602 29.5673 62.5997 30.0449 63.1547 30.0449C63.6099 30.0449 63.9746 29.7734 64.1492 29.2959L65.178 26.6983H71.1171L72.1117 29.2203C72.305 29.7219 72.6541 30.0449 73.1592 30.0449C73.7391 30.0449 74.1724 29.5432 74.1724 28.911H74.1755Z" fill="white"/>
<path d="M81.6572 30.1796C83.6338 30.1796 84.9401 29.4855 86.0967 28.3688C86.29 28.1764 86.4459 27.8844 86.4459 27.5236C86.4459 26.9257 85.972 26.4275 85.4327 26.4275C85.1708 26.4275 84.9432 26.5443 84.7873 26.699C83.8988 27.5236 83.0227 27.9874 81.7289 27.9874C79.3876 27.9874 77.6916 25.8469 77.6916 23.2115V23.1737C77.6916 20.5383 79.4063 18.4184 81.7289 18.4184C82.898 18.4184 83.8052 18.8822 84.647 19.6312C84.7873 19.7481 84.9962 19.8615 85.2924 19.8615C85.8878 19.8615 86.3586 19.3598 86.3586 18.707C86.3586 18.2809 86.1653 17.9579 85.9377 17.7655C84.8715 16.8619 83.6338 16.2434 81.7445 16.2434C78.0407 16.2434 75.4375 19.3839 75.4375 23.2115V23.2493C75.4375 27.1182 78.0937 30.1796 81.6572 30.1796Z" fill="white"/>
<path d="M89.949 29.9518H97.1445C97.6714 29.9518 98.1048 29.4879 98.1048 28.8935C98.1048 28.2991 97.6652 27.8353 97.1445 27.8353H91.0152V24.2172H96.2747C96.8016 24.2172 97.2349 23.7534 97.2349 23.1796C97.2349 22.6058 96.7954 22.1041 96.2747 22.1041H91.0152V18.5994H97.0572C97.5841 18.5994 98.0175 18.1356 98.0175 17.5412C98.0175 16.9468 97.5779 16.4829 97.0572 16.4829H89.949C89.3348 16.4829 88.8672 17.0052 88.8672 17.6752V28.763C88.8672 29.4398 89.3411 29.9552 89.949 29.9552V29.9518Z" fill="white"/>
<path d="M105.746 18.6716H108.736C109.279 18.6716 109.712 18.17 109.712 17.5756C109.712 16.9811 109.273 16.4795 108.736 16.4795H100.612C100.051 16.4795 99.6172 16.9811 99.6172 17.5756C99.6172 18.17 100.057 18.6716 100.612 18.6716H103.583V28.8764C103.583 29.5326 104.072 30.0515 104.665 30.0515C105.257 30.0515 105.746 29.5292 105.746 28.8764V18.6716Z" fill="white"/>
<path d="M112.979 29.9535H120.175C120.702 29.9535 121.135 29.4897 121.135 28.8952C121.135 28.3008 120.696 27.837 120.175 27.837H114.046V24.2189H119.305C119.832 24.2189 120.265 23.7551 120.265 23.1813C120.265 22.6075 119.826 22.1058 119.305 22.1058H114.046V18.6012H120.088C120.615 18.6012 121.048 18.1373 121.048 17.5429C121.048 16.9485 120.608 16.4846 120.088 16.4846H112.976C112.368 16.4846 111.895 17.0069 111.895 17.6769V28.7647C111.895 29.4415 112.368 29.9569 112.976 29.9569H112.979V29.9535Z" fill="white"/>
<path d="M131.412 20.9037C131.412 22.2712 130.436 23.1543 128.896 23.1543H125.75V18.6292H128.881C130.471 18.6292 131.412 19.416 131.412 20.8591V20.8969V20.9037ZM133.594 20.7732V20.7354C133.594 19.5603 133.227 18.5604 132.581 17.8286C131.796 16.9833 130.592 16.4817 129.055 16.4817H124.687C124.073 16.4817 123.605 17.004 123.605 17.674V28.8786C123.605 29.5348 124.079 30.0536 124.687 30.0536C125.295 30.0536 125.754 29.5314 125.754 28.8786V25.2605H128.463L131.434 29.4386C131.68 29.8063 131.995 30.0571 132.481 30.0571C133.008 30.0571 133.51 29.6138 133.51 28.961C133.51 28.5934 133.37 28.3426 133.161 28.0574L130.82 24.8035C132.463 24.2435 133.598 22.9344 133.598 20.78L133.594 20.7732Z" fill="white"/>
<defs>
<clipPath id="clip0_1_958">
<rect width="43.403" height="36.973" fill="white"/>
</clipPath>
</defs>
</svg>
