<svg width="33" height="28" viewBox="0 0 33 28" fill="none" xmlns="http://www.w3.org/2000/svg">
<path d="M30.024 2C30.9283 2 31.6105 2.79326 31.2456 4.26872L26.8192 25.1314C26.5098 26.6148 25.6134 26.9718 24.376 26.2816L13.8177 18.4839C13.7767 18.4545 13.7434 18.4158 13.7204 18.371C13.6974 18.3262 13.6854 18.2765 13.6854 18.2261C13.6854 18.1757 13.6974 18.126 13.7204 18.0812C13.7434 18.0364 13.7767 17.9977 13.8177 17.9683L26.0101 6.95787C26.5653 6.46605 25.8911 6.22807 25.1613 6.67229L9.85933 16.3262C9.81292 16.3565 9.76023 16.3758 9.70525 16.3827C9.65027 16.3896 9.59445 16.3838 9.54202 16.3659L3.04524 14.3114C1.6015 13.8909 1.6015 12.8994 3.37047 12.1934L29.3655 2.16658C29.572 2.06848 29.7957 2.01188 30.024 2Z" stroke="#0076FE" stroke-width="2.1" stroke-linecap="round" stroke-linejoin="round"/>
</svg>
