<svg width="29" height="28" viewBox="0 0 29 28" fill="none" xmlns="http://www.w3.org/2000/svg">
<path d="M19.6217 19.158L20.2904 18.4936L18.7374 16.9333L18.0717 17.5976L19.6217 19.158ZM22.5327 18.215L25.3351 19.7387L26.3837 17.8059L23.5827 16.2837L22.5327 18.215ZM25.8733 22.7655L23.7909 24.8376L25.341 26.3965L27.4234 24.3258L25.8733 22.7655ZM22.521 25.5034C20.3946 25.7028 14.8953 25.5254 8.93844 19.6038L7.38691 21.1626C13.8863 27.6254 20.0734 27.9422 22.7263 27.6943L22.521 25.5034ZM8.93844 19.6038C3.2617 13.9578 2.32022 9.21083 2.2029 7.15043L0.00612012 7.27508C0.152768 9.86781 1.31862 15.1295 7.38691 21.1626L8.93844 19.6038ZM10.9548 10.5409L11.3757 10.1215L9.82713 8.56265L9.40625 8.98059L10.9548 10.5409ZM11.7101 4.79086L9.86232 2.32131L8.10108 3.64114L9.94884 6.10923L11.7101 4.79086ZM3.64299 1.78312L1.34062 4.07082L2.89215 5.63116L5.19305 3.34345L3.64299 1.78312ZM10.1805 9.76076C9.40331 8.98059 9.40331 8.98059 9.40331 8.98353H9.40038L9.39598 8.98939C9.32674 9.06006 9.26438 9.13715 9.20974 9.21963C9.13055 9.33695 9.04403 9.49093 8.9707 9.68597C8.79213 10.1894 8.74766 10.7307 8.84165 11.2566C9.03816 12.5251 9.91218 14.2013 12.15 16.4274L13.7016 14.867C11.606 12.7846 11.1074 11.5176 11.015 10.9193C10.971 10.6348 11.0164 10.494 11.0296 10.4617C11.037 10.4412 11.0399 10.4397 11.0296 10.4529C11.0167 10.4733 11.002 10.4924 10.9856 10.5101L10.971 10.5248C10.9662 10.5294 10.9613 10.5338 10.9563 10.538L10.1805 9.76076ZM12.15 16.4274C14.3893 18.6535 16.0743 19.5216 17.3443 19.7152C17.9939 19.8149 18.5175 19.7357 18.9149 19.5876C19.1371 19.5054 19.345 19.3886 19.5308 19.2415C19.556 19.2204 19.5805 19.1984 19.6041 19.1756L19.6144 19.1668L19.6188 19.1624L19.6203 19.1594C19.6203 19.1594 19.6217 19.158 18.846 18.3778C18.0687 17.5976 18.0731 17.5962 18.0731 17.5962L18.0761 17.5932L18.079 17.5903L18.0878 17.583L18.1025 17.5683C18.1201 17.5525 18.1387 17.5378 18.1582 17.5243C18.1729 17.514 18.1685 17.5184 18.1479 17.5272C18.1113 17.5404 17.9675 17.5859 17.6787 17.5419C17.0715 17.448 15.7957 16.9494 13.7016 14.867L12.15 16.4274ZM9.86232 2.31985C8.36651 0.325436 5.42769 0.00867707 3.64299 1.78312L5.19305 3.34345C5.97322 2.56768 7.35758 2.64834 8.10108 3.64114L9.86232 2.31985ZM2.20437 7.15189C2.17504 6.64449 2.40821 6.11363 2.89215 5.63262L1.33915 4.07229C0.55165 4.85539 -0.0686703 5.96405 0.00612012 7.27508L2.20437 7.15189ZM23.7909 24.8376C23.3891 25.2394 22.955 25.4653 22.5224 25.5049L22.7263 27.6943C23.8041 27.5931 24.6855 27.0505 25.3425 26.398L23.7909 24.8376ZM11.3757 10.1215C12.8202 8.68583 12.9273 6.41719 11.7116 4.79233L9.95031 6.11069C10.5413 6.90113 10.4533 7.93793 9.82566 8.56411L11.3757 10.1215ZM25.3366 19.7401C26.5347 20.3913 26.721 21.9252 25.8748 22.767L27.4263 24.3258C29.3914 22.371 28.7858 19.111 26.3851 17.8073L25.3366 19.7401ZM20.2904 18.4951C20.8536 17.9349 21.7599 17.7971 22.5342 18.2165L23.5842 16.2851C21.9945 15.4199 20.0236 15.6589 18.7389 16.9348L20.2904 18.4951Z" fill="#0076FE"/>
</svg>
