<svg width="80" height="51" viewBox="0 0 80 51" fill="none" xmlns="http://www.w3.org/2000/svg">
<path d="M40.0296 0.26112C29.1291 0.363916 19.8012 7.52111 16.4575 17.4281L18.8805 18.2504C21.8854 9.34572 30.267 2.92097 40.0488 2.83102L40.0233 0.26112H40.0296ZM65.3919 25.5104C65.3919 11.4852 54.0118 0.132625 40.0296 0.26112L40.0552 2.83102C52.618 2.71537 62.8345 12.9115 62.8345 25.5104H65.3919ZM64.4137 24.6816C64.9252 24.5981 65.3919 24.9964 65.3919 25.5104H62.8345C62.8345 26.5834 63.7871 27.3928 64.8356 27.213L64.4137 24.6752V24.6816ZM66.5938 24.4953C65.8522 24.4953 65.117 24.5595 64.4073 24.6816L64.8356 27.213C65.4046 27.1166 65.9928 27.0652 66.5874 27.0652V24.4953H66.5938ZM79.6618 37.6275C79.6618 30.3804 73.8055 24.4953 66.5938 24.4953V27.0652C72.3989 27.0652 77.1044 31.7938 77.1044 37.6275H79.6618ZM66.5938 50.7276C73.8055 50.7276 79.6618 44.881 79.6618 37.6275H77.1044C77.1044 43.4547 72.3989 48.1577 66.5938 48.1577V50.7276ZM18.107 50.7276H66.5938V48.1577H18.107V50.7276ZM64.6247 25.9473L64.8356 27.213L64.6183 25.9473H64.6247Z" fill="#0076FE"/>
<path d="M17.3464 19.4643H17.3528V16.8944H17.3464V19.4643ZM7.24497 23.6661C9.82787 21.0705 13.4018 19.4643 17.3464 19.4643V16.8944C12.6985 16.8944 8.48531 18.7962 5.44209 21.8543L7.25137 23.6725L7.24497 23.6661ZM3.06372 33.8108C3.06372 29.8467 4.65568 26.2681 7.24497 23.6725L5.4357 21.8543C2.38609 24.9125 0.5 29.14 0.5 33.8172H3.05732L3.06372 33.8108ZM7.24497 43.9619C4.65568 41.3599 3.06372 37.7749 3.06372 33.8108H0.5064C0.5064 38.4816 2.39249 42.7091 5.44209 45.7737L7.25137 43.9555L7.24497 43.9619ZM17.3464 48.1637C13.4018 48.1637 9.83427 46.5639 7.24497 43.9619L5.4357 45.7801C8.4853 48.8447 12.6921 50.74 17.34 50.74V48.1701L17.3464 48.1637ZM27.4478 43.9619C24.8585 46.5639 21.2911 48.1637 17.3464 48.1637V50.7336C21.9944 50.7336 26.2012 48.8383 29.2508 45.7737L27.4414 43.9555L27.4478 43.9619ZM31.6291 33.8108C31.6291 37.7749 30.0371 41.3599 27.4478 43.9619L29.2572 45.7801C32.3068 42.7155 34.1928 38.488 34.1928 33.8172H31.6355L31.6291 33.8108ZM17.3528 19.4643C25.2421 19.4643 31.6291 25.8826 31.6291 33.8108H34.1864C34.1864 24.4692 26.6486 16.8944 17.3528 16.8944V19.4643Z" fill="#0076FE"/>
<path d="M9.83906 33.8109C9.83906 29.6412 13.2019 26.2618 17.3512 26.2618V23.6919C11.7954 23.6919 7.28174 28.2278 7.28174 33.8109H9.83906ZM17.3512 41.36C13.2019 41.36 9.83906 37.9805 9.83906 33.8109H7.28174C7.28174 39.394 11.7954 43.9299 17.3512 43.9299V41.36ZM24.8633 33.8109C24.8633 37.9805 21.5005 41.36 17.3512 41.36V43.9299C22.907 43.9299 27.4207 39.394 27.4207 33.8109H24.8633ZM17.3512 26.2618C21.5005 26.2618 24.8633 29.6412 24.8633 33.8109H27.4207C27.4207 28.2278 22.9198 23.6919 17.3512 23.6919V26.2618Z" fill="#0076FE"/>
<path d="M14.6672 33.811C14.6672 32.2691 15.9139 31.0162 17.4483 31.0162V28.4464C14.4946 28.4464 12.1099 30.8556 12.1099 33.811H14.6672ZM17.4483 31.0162C18.1515 31.0162 18.7269 30.438 18.7269 29.7313C18.7269 29.0246 18.1515 28.4464 17.4483 28.4464V31.0162ZM12.1099 33.811C12.1099 34.5177 12.6853 35.0959 13.3885 35.0959C14.0918 35.0959 14.6672 34.5177 14.6672 33.811H12.1099Z" fill="#FC0C35"/>
<path d="M55.7824 37.8135C55.7824 31.8964 60.5518 27.1035 66.44 27.1035V24.5336C59.1453 24.5336 53.2251 30.4829 53.2251 37.8135H55.7824ZM66.44 27.1035C67.1433 27.1035 67.7187 26.5253 67.7187 25.8185C67.7187 25.1118 67.1433 24.5336 66.44 24.5336V27.1035ZM53.2251 37.8135C53.2251 38.5203 53.8005 39.0985 54.5038 39.0985C55.207 39.0985 55.7824 38.5203 55.7824 37.8135H53.2251Z" fill="#0076FE"/>
</svg>
