<svg width="43" height="55" viewBox="0 0 43 55" fill="none" xmlns="http://www.w3.org/2000/svg">
<path d="M29.1068 41.0302L29.9437 41.1348L30.2343 38.8275L29.3974 38.7229L29.1068 41.0302ZM21.749 42.4948C24.5503 42.4948 27.2412 41.9485 29.6879 40.9546L28.8162 38.7984C26.6367 39.6818 24.2481 40.1642 21.749 40.1642V42.4889V42.4948ZM13.81 40.9546C16.2626 41.9427 18.9476 42.4948 21.749 42.4948V40.17C19.2499 40.17 16.867 39.6818 14.6817 38.8042L13.81 40.9604V40.9546ZM13.3334 41.0418H14.2458V38.7171H13.3334V41.0418ZM5.89421 49.8003L14.1935 40.6582L12.4732 39.0948L4.17389 48.2369L5.89421 49.8003ZM9.3232 52.0146L5.89421 48.2369L4.17389 49.8003L7.60288 53.578L9.3232 52.0146ZM21.6618 45.3019C16.0708 45.3019 11.0609 47.9172 7.57383 52.0436L9.35226 53.5431C12.4442 49.8816 16.8263 47.6266 21.6618 47.6266V45.3019ZM35.7497 52.0436C32.2626 47.9172 27.2528 45.3019 21.6618 45.3019V47.6266C26.4972 47.6266 30.8794 49.8816 33.9713 53.5431L35.7497 52.0436ZM37.4293 48.2369L34.0004 52.0146L35.7207 53.578L39.1497 49.8003L37.4293 48.2369ZM29.2288 40.7687L37.4293 49.8003L39.1497 48.2369L30.9491 39.2053L29.2288 40.7687ZM30.089 39.984H31.2513V38.9554L30.2343 38.8275L30.089 39.9782V39.984ZM29.2521 39.8794L29.3974 38.7287L29.0951 38.6938L28.8162 38.8101L29.2521 39.8852V39.8794ZM14.2458 39.8794L14.6817 38.8042L14.4725 38.7171H14.2458V39.8794ZM13.3334 39.8794V38.7171H12.8161L12.4674 39.1007L13.3276 39.8794H13.3334ZM5.03404 49.0215L4.17389 48.2427L3.46484 49.0215L4.17389 49.8003L5.03404 49.0215ZM8.46305 52.7992L7.60288 53.578L8.49211 54.5602L9.34644 53.5489L8.45723 52.7992H8.46305ZM34.8605 52.7992L33.9713 53.5489L34.8256 54.5602L35.7148 53.578L34.8547 52.7992H34.8605ZM38.2895 49.0215L39.1497 49.8003L39.8587 49.0215L39.1497 48.2427L38.2895 49.0215ZM30.089 39.9899H28.9266V40.4374L29.2288 40.7687L30.089 39.9899Z" fill="#0076FE"/>
<path d="M2.98881 21.4614C2.98881 11.1337 11.3579 2.76465 21.6856 2.76465V0.439911C10.0793 0.439911 0.664062 9.85511 0.664062 21.4614H2.98881ZM21.6856 40.1582C11.3579 40.1582 2.98881 31.7891 2.98881 21.4614H0.664062C0.664062 33.0677 10.0793 42.4829 21.6856 42.4829V40.1582ZM40.3823 21.4614C40.3823 31.7891 32.0132 40.1582 21.6856 40.1582V42.4829C33.2918 42.4829 42.707 33.0677 42.707 21.4614H40.3823ZM21.6856 2.76465C32.0132 2.76465 40.3823 11.1337 40.3823 21.4614H42.707C42.707 9.85511 33.2918 0.439911 21.6856 0.439911V2.76465Z" fill="#0076FE"/>
<path d="M21.6858 11.4011C27.242 11.4011 31.7462 15.9053 31.7462 21.4615H34.0709C34.0709 14.6209 28.5264 9.07639 21.6858 9.07639V11.4011ZM11.6255 21.4615C11.6255 15.9053 16.1297 11.4011 21.6858 11.4011V9.07639C14.8453 9.07639 9.30078 14.6209 9.30078 21.4615H11.6255ZM21.6858 31.5218C16.1297 31.5218 11.6255 27.0176 11.6255 21.4615H9.30078C9.30078 28.302 14.8453 33.8465 21.6858 33.8465V31.5218ZM31.7462 21.4615C31.7462 27.0176 27.242 31.5218 21.6858 31.5218V33.8465C28.5264 33.8465 34.0709 28.302 34.0709 21.4615H31.7462Z" fill="#0076FE"/>
<path d="M17.7857 21.4613C17.7857 19.2412 19.5815 17.4453 21.8017 17.4453V15.1206C18.3029 15.1206 15.4609 17.9626 15.4609 21.4613H17.7857ZM21.8017 17.4453C22.441 17.4453 22.964 16.9223 22.964 16.2829C22.964 15.6436 22.441 15.1206 21.8017 15.1206V17.4453ZM15.4609 21.4613C15.4609 22.1006 15.984 22.6237 16.6233 22.6237C17.2626 22.6237 17.7857 22.1006 17.7857 21.4613H15.4609Z" fill="#FC0C35"/>
</svg>
