<svg width="172" height="32" viewBox="0 0 172 32" fill="none" xmlns="http://www.w3.org/2000/svg">
<rect x="0.328125" y="0.348633" width="31" height="31" rx="5" fill="#04C979"/>
<path d="M15.8281 3.34863L18.7671 11.8035L27.7163 11.9859L20.5834 17.3937L23.1754 25.9613L15.8281 20.8486L8.48081 25.9613L11.0728 17.3937L3.93992 11.9859L12.8892 11.8035L15.8281 3.34863Z" fill="white"/>
<rect x="35.3281" y="0.348633" width="31" height="31" rx="5" fill="#04C979"/>
<path d="M50.8281 3.34863L53.7671 11.8035L62.7163 11.9859L55.5834 17.3937L58.1754 25.9613L50.8281 20.8486L43.4808 25.9613L46.0728 17.3937L38.9399 11.9859L47.8892 11.8035L50.8281 3.34863Z" fill="white"/>
<rect x="70.3281" y="0.348633" width="31" height="31" rx="5" fill="#04C979"/>
<path d="M85.8281 3.34863L88.7671 11.8035L97.7163 11.9859L90.5834 17.3937L93.1754 25.9613L85.8281 20.8486L78.4808 25.9613L81.0728 17.3937L73.9399 11.9859L82.8892 11.8035L85.8281 3.34863Z" fill="white"/>
<rect x="105.328" y="0.348633" width="31" height="31" rx="5" fill="#04C979"/>
<path d="M120.828 3.34863L123.767 11.8035L132.716 11.9859L125.583 17.3937L128.175 25.9613L120.828 20.8486L113.481 25.9613L116.073 17.3937L108.94 11.9859L117.889 11.8035L120.828 3.34863Z" fill="white"/>
<rect x="140.328" y="0.348633" width="31" height="31" rx="5" fill="#04C979"/>
<path d="M155.828 3.34863L158.767 11.8035L167.716 11.9859L160.583 17.3937L163.175 25.9613L155.828 20.8486L148.481 25.9613L151.073 17.3937L143.94 11.9859L152.889 11.8035L155.828 3.34863Z" fill="url(#paint0_linear_1_342)"/>
<defs>
<linearGradient id="paint0_linear_1_342" x1="156.352" y1="14.3486" x2="155.852" y2="14.3486" gradientUnits="userSpaceOnUse">
<stop stop-color="#04C979"/>
<stop offset="1" stop-color="white"/>
</linearGradient>
</defs>
</svg>
