<svg width="16" height="19" viewBox="0 0 16 19" fill="none" xmlns="http://www.w3.org/2000/svg">
<path d="M15.5939 10.4261C15.5236 10.3563 15.4405 10.301 15.3491 10.2633C15.2578 10.2255 15.16 10.2061 15.0614 10.2061C14.9629 10.2061 14.8654 10.2255 14.7747 10.2633C14.684 10.301 14.6017 10.3563 14.5326 10.4261L9.10826 15.8962L8.98736 1.20701C8.98573 1.0081 8.90514 0.817343 8.76333 0.676694C8.62152 0.536047 8.4301 0.457032 8.23119 0.457032C8.03228 0.457032 7.84216 0.536047 7.70267 0.676694C7.56317 0.817343 7.48572 1.0081 7.48736 1.20701L7.60826 15.8962L2.09385 10.4261C1.95197 10.2854 1.76044 10.2063 1.56142 10.2063C1.3624 10.2063 1.17218 10.2854 1.0326 10.4261C0.89303 10.5668 0.815539 10.7577 0.817177 10.9567C0.818815 11.1557 0.899448 11.3466 1.04134 11.4873L7.8469 18.2371C7.91713 18.3068 8.0003 18.3621 8.09166 18.3999C8.18302 18.4376 8.28077 18.457 8.37933 18.457C8.47789 18.457 8.57533 18.4376 8.66607 18.3999C8.75681 18.3621 8.83907 18.3068 8.90815 18.2371L15.6026 11.4873C15.6718 11.4176 15.7264 11.3349 15.7634 11.2439C15.8004 11.1528 15.819 11.0552 15.8182 10.9567C15.8174 10.8581 15.7972 10.7605 15.7587 10.6695C15.7202 10.5784 15.6642 10.4957 15.5939 10.4261Z" fill="#0076FE"/>
</svg>
