<svg width="113" height="26" viewBox="0 0 113 26" fill="none" xmlns="http://www.w3.org/2000/svg">
<path d="M11.5554 3.17442C11.8667 2.27886 13.1333 2.27886 13.4446 3.17442L15.2105 8.25466C15.3478 8.64973 15.7165 8.9176 16.1346 8.92612L21.5119 9.0357C22.4599 9.05502 22.8512 10.2596 22.0957 10.8324L17.8098 14.0817C17.4765 14.3344 17.3357 14.7678 17.4568 15.1682L19.0142 20.3161C19.2888 21.2236 18.2642 21.9681 17.4859 21.4265L13.0712 18.3545C12.7279 18.1156 12.2721 18.1156 11.9288 18.3545L7.51409 21.4265C6.73585 21.9681 5.7112 21.2236 5.98576 20.3161L7.54321 15.1682C7.66433 14.7678 7.5235 14.3344 7.1902 14.0817L2.9043 10.8324C2.14876 10.2596 2.54014 9.05502 3.48807 9.0357L8.86536 8.92612C9.28353 8.9176 9.65222 8.64973 9.78955 8.25466L11.5554 3.17442Z" fill="#FFC700"/>
<path d="M33.5554 3.17442C33.8667 2.27886 35.1333 2.27886 35.4446 3.17442L37.2105 8.25466C37.3478 8.64973 37.7165 8.9176 38.1346 8.92612L43.5119 9.0357C44.4599 9.05502 44.8512 10.2596 44.0957 10.8324L39.8098 14.0817C39.4765 14.3344 39.3357 14.7678 39.4568 15.1682L41.0142 20.3161C41.2888 21.2236 40.2642 21.9681 39.4859 21.4265L35.0712 18.3545C34.7279 18.1156 34.2721 18.1156 33.9288 18.3545L29.5141 21.4265C28.7359 21.9681 27.7112 21.2236 27.9858 20.3161L29.5432 15.1682C29.6643 14.7678 29.5235 14.3344 29.1902 14.0817L24.9043 10.8324C24.1488 10.2596 24.5401 9.05502 25.4881 9.0357L30.8654 8.92612C31.2835 8.9176 31.6522 8.64973 31.7895 8.25466L33.5554 3.17442Z" fill="#FFC700"/>
<path d="M55.5554 3.17442C55.8667 2.27886 57.1333 2.27886 57.4446 3.17442L59.2105 8.25466C59.3478 8.64973 59.7165 8.9176 60.1346 8.92612L65.5119 9.0357C66.4599 9.05502 66.8512 10.2596 66.0957 10.8324L61.8098 14.0817C61.4765 14.3344 61.3357 14.7678 61.4568 15.1682L63.0142 20.3161C63.2888 21.2236 62.2642 21.9681 61.4859 21.4265L57.0712 18.3545C56.7279 18.1156 56.2721 18.1156 55.9288 18.3545L51.5141 21.4265C50.7359 21.9681 49.7112 21.2236 49.9858 20.3161L51.5432 15.1682C51.6643 14.7678 51.5235 14.3344 51.1902 14.0817L46.9043 10.8324C46.1488 10.2596 46.5401 9.05502 47.4881 9.0357L52.8654 8.92612C53.2835 8.9176 53.6522 8.64973 53.7895 8.25466L55.5554 3.17442Z" fill="#FFC700"/>
<path d="M77.5554 3.17442C77.8667 2.27886 79.1333 2.27886 79.4446 3.17442L81.2105 8.25466C81.3478 8.64973 81.7165 8.9176 82.1346 8.92612L87.5119 9.0357C88.4599 9.05502 88.8512 10.2596 88.0957 10.8324L83.8098 14.0817C83.4765 14.3344 83.3357 14.7678 83.4568 15.1682L85.0142 20.3161C85.2888 21.2236 84.2642 21.9681 83.4859 21.4265L79.0712 18.3545C78.7279 18.1156 78.2721 18.1156 77.9288 18.3545L73.5141 21.4265C72.7359 21.9681 71.7112 21.2236 71.9858 20.3161L73.5432 15.1682C73.6643 14.7678 73.5235 14.3344 73.1902 14.0817L68.9043 10.8324C68.1488 10.2596 68.5401 9.05502 69.4881 9.0357L74.8654 8.92612C75.2835 8.9176 75.6522 8.64973 75.7895 8.25466L77.5554 3.17442Z" fill="#FFC700"/>
<path d="M99.5554 3.17442C99.8667 2.27886 101.133 2.27886 101.445 3.17442L103.21 8.25466C103.348 8.64973 103.716 8.9176 104.135 8.92612L109.512 9.0357C110.46 9.05502 110.851 10.2596 110.096 10.8324L105.81 14.0817C105.476 14.3344 105.336 14.7678 105.457 15.1682L107.014 20.3161C107.289 21.2236 106.264 21.9681 105.486 21.4265L101.071 18.3545C100.728 18.1156 100.272 18.1156 99.9288 18.3545L95.5141 21.4265C94.7359 21.9681 93.7112 21.2236 93.9858 20.3161L95.5432 15.1682C95.6643 14.7678 95.5235 14.3344 95.1902 14.0817L90.9043 10.8324C90.1488 10.2596 90.5401 9.05502 91.4881 9.0357L96.8654 8.92612C97.2835 8.9176 97.6522 8.64973 97.7895 8.25466L99.5554 3.17442Z" fill="#FFC700"/>
</svg>
