<svg width="40" height="40" viewBox="0 0 40 40" fill="none" xmlns="http://www.w3.org/2000/svg">
<path d="M20.0032 37.9702C15.4014 37.9702 10.7996 36.2191 7.29635 32.707L5.86363 34.1392C9.76681 38.0461 14.8901 39.9995 20.0082 39.9995V37.9752L20.0032 37.9702ZM32.7151 32.707C29.2068 36.2141 24.605 37.9702 20.0032 37.9702V39.9944C25.1214 39.9944 30.2395 38.0359 34.1427 34.1341L32.71 32.7019L32.7151 32.707ZM37.975 19.9995C37.975 24.5997 36.2234 29.1948 32.71 32.707L34.1427 34.1392C38.0458 30.2323 39.9949 25.121 39.9949 20.0046H37.9699L37.975 19.9995ZM32.7049 7.29204C36.2132 10.8042 37.9699 15.3993 37.975 19.9995H40C39.9949 14.8831 38.0408 9.76672 34.1427 5.85984L32.71 7.29204H32.7049ZM19.9981 2.02887C24.5999 2.02887 29.2017 3.77989 32.7049 7.29204L34.1377 5.85984C30.2345 1.95296 25.1112 -0.000488281 19.993 -0.000488281V2.0238L19.9981 2.02887ZM7.29129 7.28697C10.7996 3.77989 15.3963 2.02887 19.9981 2.02887V0.00457739C14.885 0.00457739 9.76681 1.95802 5.86363 5.85984L7.29635 7.29204L7.29129 7.28697ZM7.29129 32.6969C0.269617 25.6827 0.269617 14.3062 7.29129 7.28697L5.85856 5.85478C-1.95285 13.6635 -1.95285 26.3254 5.85856 34.1291L7.29129 32.6969ZM6.57746 33.4155H5.56496V33.8355L5.85856 34.1341L6.57746 33.4206V33.4155ZM33.4289 33.4155L34.1427 34.1291L33.4238 33.4155H33.4289ZM6.57746 33.4104H7.58995V32.9904L7.29129 32.6918L6.57746 33.4054V33.4104Z" fill="#0076FE"/>
<path d="M26.8731 26.867C23.0763 30.6626 16.9254 30.6626 13.1285 26.867L11.6958 28.2992C16.2824 32.8842 23.7193 32.8842 28.3059 28.2992L26.8731 26.867ZM26.8731 13.1271C30.67 16.9227 30.67 23.0715 26.8731 26.867L28.3059 28.2992C32.8925 23.7142 32.8925 16.2799 28.3059 11.6949L26.8731 13.1271ZM13.1285 13.1271C16.9254 9.33158 23.0763 9.33158 26.8731 13.1271L28.3059 11.6949C23.7193 7.10991 16.2824 7.10991 11.6958 11.6949L13.1285 13.1271ZM13.1285 26.867C9.33168 23.0715 9.33168 16.9227 13.1285 13.1271L11.6958 11.6949C7.10921 16.2799 7.10921 23.7142 11.6958 28.2992L13.1285 26.867Z" fill="#0076FE"/>
<path d="M22.7059 22.6971C21.1669 24.2361 18.6711 24.2361 17.1321 22.6971L15.6995 24.1298C18.0282 26.4585 21.8099 26.4585 24.1387 24.1298L22.7059 22.6971ZM17.1321 22.6971C16.7373 22.3022 16.0943 22.3022 15.6995 22.6971C15.3046 23.092 15.3046 23.7349 15.6995 24.1298L17.1321 22.6971ZM24.1387 24.1298C24.5335 23.7349 24.5335 23.092 24.1387 22.6971C23.7438 22.3022 23.1008 22.3022 22.7059 22.6971L24.1387 24.1298Z" fill="#FC0C35"/>
</svg>
