<svg width="64" height="40" viewBox="0 0 64 40" fill="none" xmlns="http://www.w3.org/2000/svg">
<path d="M31.4777 0.000367599C22.7977 0.081822 15.3701 5.7531 12.7075 13.6033L14.6369 14.2549C17.0296 7.1989 23.7038 2.108 31.4929 2.03673L31.4726 0.000367599H31.4777ZM51.6732 20.0076C51.6732 8.89419 42.6115 -0.10145 31.4777 0.000367599L31.498 2.03673C41.5016 1.94509 49.6369 10.0244 49.6369 20.0076H51.6732ZM50.8944 19.3509C51.3016 19.2847 51.6732 19.6004 51.6732 20.0076H49.6369C49.6369 20.8578 50.3954 21.4992 51.2303 21.3567L50.8944 19.3458V19.3509ZM52.6303 19.2033C52.0398 19.2033 51.4543 19.2542 50.8893 19.3509L51.2303 21.3567C51.6834 21.2803 52.1518 21.2396 52.6252 21.2396V19.2033H52.6303ZM63.0361 29.6091C63.0361 23.8665 58.3728 19.2033 52.6303 19.2033V21.2396C57.2528 21.2396 60.9998 24.9865 60.9998 29.6091H63.0361ZM52.6303 39.9894C58.3728 39.9894 63.0361 35.3567 63.0361 29.6091H60.9998C60.9998 34.2265 57.2528 37.953 52.6303 37.953V39.9894ZM14.0209 39.9894H52.6303V37.953H14.0209V39.9894ZM51.0623 20.3538L51.2303 21.3567L51.0572 20.3538H51.0623Z" fill="white"/>
<path d="M13.4146 15.217H13.4196V13.1807H13.4146V15.217ZM5.37092 18.5465C7.42765 16.4898 10.2735 15.217 13.4146 15.217V13.1807C9.71348 13.1807 6.35858 14.6876 3.93532 17.1109L5.37602 18.5516L5.37092 18.5465ZM2.04146 26.585C2.04146 23.4439 3.30911 20.6083 5.37092 18.5516L3.93022 17.1109C1.50186 19.5341 0 22.8839 0 26.5901H2.03636L2.04146 26.585ZM5.37092 34.6286C3.30911 32.5668 2.04146 29.7261 2.04146 26.585H0.00509587C0.00509587 30.2861 1.50696 33.6359 3.93532 36.0643L5.37602 34.6235L5.37092 34.6286ZM13.4146 37.9581C10.2735 37.9581 7.43274 36.6904 5.37092 34.6286L3.93022 36.0694C6.35858 38.4977 9.70839 39.9995 13.4095 39.9995V37.9632L13.4146 37.9581ZM21.4581 34.6286C19.3963 36.6904 16.5557 37.9581 13.4146 37.9581V39.9944C17.1157 39.9944 20.4655 38.4926 22.8938 36.0643L21.4531 34.6235L21.4581 34.6286ZM24.7876 26.585C24.7876 29.7261 23.52 32.5668 21.4581 34.6286L22.8989 36.0694C25.3273 33.641 26.8291 30.2912 26.8291 26.5901H24.7927L24.7876 26.585ZM13.4196 15.217C19.7018 15.217 24.7876 20.3028 24.7876 26.585H26.824C26.824 19.1828 20.8218 13.1807 13.4196 13.1807V15.217Z" fill="white"/>
<path d="M7.43773 26.5851C7.43773 23.2811 10.1155 20.6033 13.4195 20.6033V18.5669C8.99554 18.5669 5.40137 22.1611 5.40137 26.5851H7.43773ZM13.4195 32.5669C10.1155 32.5669 7.43773 29.8891 7.43773 26.5851H5.40137C5.40137 31.009 8.99554 34.6032 13.4195 34.6032V32.5669ZM19.4013 26.5851C19.4013 29.8891 16.7235 32.5669 13.4195 32.5669V34.6032C17.8435 34.6032 21.4377 31.009 21.4377 26.5851H19.4013ZM13.4195 20.6033C16.7235 20.6033 19.4013 23.2811 19.4013 26.5851H21.4377C21.4377 22.1611 17.8537 18.5669 13.4195 18.5669V20.6033Z" fill="white"/>
<path d="M11.2815 26.5851C11.2815 25.3633 12.2742 24.3706 13.496 24.3706V22.3342C11.144 22.3342 9.24512 24.2433 9.24512 26.5851H11.2815ZM13.496 24.3706C14.056 24.3706 14.5142 23.9124 14.5142 23.3524C14.5142 22.7924 14.056 22.3342 13.496 22.3342V24.3706ZM9.24512 26.5851C9.24512 27.1451 9.7033 27.6033 10.2633 27.6033C10.8233 27.6033 11.2815 27.1451 11.2815 26.5851H9.24512Z" fill="#FC0C35"/>
<path d="M44.0202 29.7567C44.0202 25.068 47.818 21.2702 52.5067 21.2702V19.2338C46.698 19.2338 41.9839 23.948 41.9839 29.7567H44.0202ZM52.5067 21.2702C53.0667 21.2702 53.5249 20.812 53.5249 20.252C53.5249 19.692 53.0667 19.2338 52.5067 19.2338V21.2702ZM41.9839 29.7567C41.9839 30.3167 42.4421 30.7749 43.0021 30.7749C43.5621 30.7749 44.0202 30.3167 44.0202 29.7567H41.9839Z" fill="white"/>
</svg>
