<svg width="248" height="1575" viewBox="0 0 248 1575" fill="none" xmlns="http://www.w3.org/2000/svg">
<g opacity="0.2">
<path d="M4 90.75V78.78H0V90.75H4ZM14.66 101.41C8.77003 101.41 4 96.64 4 90.75H0C0 98.84 6.57003 105.41 14.66 105.41V101.41ZM55.6001 101.41H14.66V105.41H55.6001V101.41ZM66.26 90.75C66.26 96.64 61.4901 101.41 55.6001 101.41V105.41C63.6901 105.41 70.26 98.84 70.26 90.75H66.26ZM66.26 69.62V90.75H70.26V69.62H66.26ZM55.6001 58.96C61.4901 58.96 66.26 63.73 66.26 69.62H70.26C70.26 61.53 63.6901 54.96 55.6001 54.96V58.96ZM24.14 58.96H55.6001V54.96H24.14V58.96ZM4 78.78C4 77.68 3.1 76.78 2 76.78C0.9 76.78 0 77.68 0 78.78H4ZM24.14 54.96C23.04 54.96 22.14 55.86 22.14 56.96C22.14 58.06 23.04 58.96 24.14 58.96V54.96Z" fill="#0076FE"/>
<path d="M14.66 54.96C6.57003 54.96 0 61.53 0 69.62H4C4 63.73 8.77003 58.96 14.66 58.96V54.96ZM0 69.62C0 70.72 0.9 71.62 2 71.62C3.1 71.62 4 70.72 4 69.62H0ZM14.66 58.96C15.76 58.96 16.66 58.06 16.66 56.96C16.66 55.86 15.76 54.96 14.66 54.96V58.96Z" fill="#FC0C35"/>
<path d="M35.1292 35C27.9892 35 22.1992 40.79 22.1992 47.93H26.1992C26.1992 42.99 30.1892 39 35.1292 39V35ZM48.0592 47.93C48.0592 40.79 42.2691 35 35.1292 35V39C40.0692 39 44.0592 42.99 44.0592 47.93H48.0592ZM22.1992 47.93C22.1992 49.03 23.0992 49.93 24.1992 49.93C25.2992 49.93 26.1992 49.03 26.1992 47.93H22.1992ZM44.0592 47.93C44.0592 49.03 44.9592 49.93 46.0592 49.93C47.1592 49.93 48.0592 49.03 48.0592 47.93H44.0592Z" fill="#0076FE"/>
<path d="M22.1992 47.9299V56.9599H26.1992V47.9299H22.1992ZM22.1992 56.9599C22.1992 58.0599 23.0992 58.9599 24.1992 58.9599C25.2992 58.9599 26.1992 58.0599 26.1992 56.9599H22.1992ZM26.1992 47.9299C26.1992 46.8299 25.2992 45.9299 24.1992 45.9299C23.0992 45.9299 22.1992 46.8299 22.1992 47.9299H26.1992Z" fill="#0076FE"/>
<path d="M44.0586 47.9299V56.9599H48.0586V47.9299H44.0586ZM44.0586 56.9599C44.0586 58.0599 44.9586 58.9599 46.0586 58.9599C47.1586 58.9599 48.0586 58.0599 48.0586 56.9599H44.0586ZM48.0586 47.9299C48.0586 46.8299 47.1586 45.9299 46.0586 45.9299C44.9586 45.9299 44.0586 46.8299 44.0586 47.9299H48.0586Z" fill="#0076FE"/>
<path d="M33.1289 75.3501V85.0301H37.1289V75.3501H33.1289ZM33.1289 85.0301C33.1289 86.1301 34.0289 87.0301 35.1289 87.0301C36.2289 87.0301 37.1289 86.1301 37.1289 85.0301H33.1289ZM37.1289 75.3501C37.1289 74.2501 36.2289 73.3501 35.1289 73.3501C34.0289 73.3501 33.1289 74.2501 33.1289 75.3501H37.1289Z" fill="#0076FE"/>
<path d="M35.129 74.76C35.459 74.76 35.7191 75.02 35.7191 75.35H39.7191C39.7191 72.81 37.659 70.76 35.129 70.76V74.76ZM34.5391 75.35C34.5391 75.02 34.799 74.76 35.129 74.76V70.76C32.599 70.76 30.5391 72.81 30.5391 75.35H34.5391ZM35.129 75.94C34.799 75.94 34.5391 75.68 34.5391 75.35H30.5391C30.5391 77.88 32.599 79.94 35.129 79.94V75.94ZM35.7191 75.35C35.7191 75.68 35.459 75.94 35.129 75.94V79.94C37.669 79.94 39.7191 77.89 39.7191 75.35H35.7191Z" fill="#0076FE"/>
</g>
<g opacity="0.2">
<path d="M130.999 200.46C132.716 200.46 134.108 199.074 134.108 197.365C134.108 195.656 132.716 194.271 130.999 194.271C129.282 194.271 127.891 195.656 127.891 197.365C127.891 199.074 129.282 200.46 130.999 200.46Z" fill="#0076FE"/>
<path d="M107.405 176.605C109.122 176.605 110.514 175.219 110.514 173.51C110.514 171.801 109.122 170.416 107.405 170.416C105.689 170.416 104.297 171.801 104.297 173.51C104.297 175.219 105.689 176.605 107.405 176.605Z" fill="#0076FE"/>
<path d="M155.616 176.605C157.333 176.605 158.725 175.219 158.725 173.51C158.725 171.801 157.333 170.416 155.616 170.416C153.9 170.416 152.508 171.801 152.508 173.51C152.508 175.219 153.9 176.605 155.616 176.605Z" fill="#0076FE"/>
<path d="M130.968 151.44C132.685 151.44 134.076 150.055 134.076 148.346C134.076 146.637 132.685 145.251 130.968 145.251C129.251 145.251 127.859 146.637 127.859 148.346C127.859 150.055 129.251 151.44 130.968 151.44Z" fill="#0076FE"/>
<path d="M99.9852 194.459V161.637H96V194.459H99.9852ZM110.606 205.032C104.738 205.032 99.9852 200.301 99.9852 194.459H96C96 202.483 102.546 209 110.606 209V205.032ZM151.394 205.032H110.606V209H151.394V205.032ZM162.015 194.459C162.015 200.301 157.263 205.032 151.394 205.032V209C159.454 209 166 202.483 166 194.459H162.015ZM162.015 152.541V194.459H166V152.541H162.015ZM151.394 141.968C157.263 141.968 162.015 146.699 162.015 152.541H166C166 144.517 159.454 138 151.394 138V141.968ZM120.051 141.968H151.394V138H120.051V141.968ZM99.9852 161.637C99.9852 160.546 99.0885 159.653 97.9926 159.653C96.8967 159.653 96 160.546 96 161.637H99.9852ZM120.051 138C118.955 138 118.058 138.893 118.058 139.984C118.058 141.075 118.955 141.968 120.051 141.968V138Z" fill="#0076FE"/>
<path d="M110.606 138C102.546 138 96 144.517 96 152.541H99.9852C99.9852 146.699 104.738 141.968 110.606 141.968V138ZM96 152.541C96 153.632 96.8967 154.525 97.9926 154.525C99.0885 154.525 99.9852 153.632 99.9852 152.541H96ZM110.606 141.968C111.702 141.968 112.598 141.075 112.598 139.984C112.598 138.893 111.702 138 110.606 138V141.968Z" fill="#FC0C35"/>
<path d="M131 175.484H139.419V171.516H131V175.484ZM129.008 157.114V173.5H132.993V157.114H129.008ZM139.419 175.484C140.515 175.484 141.412 174.591 141.412 173.5C141.412 172.409 140.515 171.516 139.419 171.516V175.484ZM131 173.5H129.008C129.008 174.591 129.904 175.484 131 175.484V173.5ZM132.993 157.114C132.993 156.023 132.096 155.13 131 155.13C129.904 155.13 129.008 156.023 129.008 157.114H132.993Z" fill="#0076FE"/>
</g>
<g opacity="0.2">
<path d="M145 56.92V23.83H141V56.92H145ZM155.66 67.58C149.77 67.58 145 62.81 145 56.92H141C141 65.01 147.57 71.58 155.66 71.58V67.58ZM196.6 67.58H155.66V71.58H196.6V67.58ZM207.26 56.92C207.26 62.81 202.49 67.58 196.6 67.58V71.58C204.69 71.58 211.26 65.01 211.26 56.92H207.26ZM207.26 14.66V56.92H211.26V14.66H207.26ZM196.6 4C202.49 4 207.26 8.77 207.26 14.66H211.26C211.26 6.57 204.69 0 196.6 0V4ZM165.14 4H196.6V0H165.14V4ZM145 23.83C145 22.73 144.1 21.83 143 21.83C141.9 21.83 141 22.73 141 23.83H145ZM165.14 0C164.04 0 163.14 0.9 163.14 2C163.14 3.1 164.04 4 165.14 4V0Z" fill="#0076FE"/>
<path d="M155.66 0C147.57 0 141 6.57 141 14.66H145C145 8.77 149.77 4 155.66 4V0ZM141 14.66C141 15.76 141.9 16.66 143 16.66C144.1 16.66 145 15.76 145 14.66H141ZM155.66 4C156.76 4 157.66 3.1 157.66 2C157.66 0.9 156.76 0 155.66 0V4Z" fill="#FC0C35"/>
<path d="M169.021 21.0209C164.941 16.9409 158.321 16.9409 154.241 21.0209L157.071 23.8509C159.591 21.3309 163.671 21.3309 166.191 23.8509L169.021 21.0209ZM154.241 21.0209C153.461 21.8009 153.461 23.0709 154.241 23.8509C155.021 24.6309 156.291 24.6309 157.071 23.8509L154.241 21.0209ZM166.191 23.8509C166.971 24.6309 168.241 24.6309 169.021 23.8509C169.801 23.0709 169.801 21.8009 169.021 21.0209L166.191 23.8509Z" fill="#0076FE"/>
<path d="M194.759 21.0209C190.679 16.9409 184.06 16.9409 179.98 21.0209L182.809 23.8509C185.329 21.3309 189.409 21.3309 191.929 23.8509L194.759 21.0209ZM179.98 21.0209C179.2 21.8009 179.2 23.0709 179.98 23.8509C180.76 24.6309 182.029 24.6309 182.809 23.8509L179.98 21.0209ZM191.929 23.8509C192.709 24.6309 193.979 24.6309 194.759 23.8509C195.539 23.0709 195.539 21.8009 194.759 21.0209L191.929 23.8509Z" fill="#0076FE"/>
<path d="M179.141 59.241C184.911 59.241 189.591 54.561 189.591 48.791H185.591C185.591 52.361 182.711 55.241 179.141 55.241V59.241ZM189.591 48.791C189.591 47.691 188.691 46.791 187.591 46.791C186.491 46.791 185.591 47.691 185.591 48.791H189.591ZM179.141 55.241C178.041 55.241 177.141 56.141 177.141 57.241C177.141 58.341 178.041 59.241 179.141 59.241V55.241Z" fill="#0076FE"/>
<path d="M167.598 41.6916L177.588 44.0616L178.508 40.1716L168.518 37.8016L167.598 41.6916ZM173.728 28.3016L166.428 38.5916L169.688 40.9016L176.988 30.6116L173.728 28.3016ZM177.588 44.0616C178.658 44.3116 179.738 43.6516 179.998 42.5816C180.258 41.5116 179.588 40.4316 178.518 40.1716L177.598 44.0616H177.588ZM168.058 39.7416L166.428 38.5816C166.048 39.1216 165.958 39.8216 166.188 40.4416C166.418 41.0616 166.948 41.5316 167.598 41.6816L168.058 39.7316V39.7416ZM176.988 30.6116C177.628 29.7116 177.418 28.4616 176.518 27.8216C175.618 27.1816 174.368 27.3916 173.728 28.2916L176.988 30.6016V30.6116Z" fill="#0076FE"/>
</g>
<g opacity="0.2">
<path d="M93.8309 1496C76.7809 1496.16 62.1909 1507.3 56.9609 1522.72L60.7509 1524C65.4509 1510.14 78.5608 1500.14 93.8608 1500L93.8209 1496H93.8309ZM133.501 1535.3C133.501 1513.47 115.701 1495.8 93.8309 1496L93.8708 1500C113.521 1499.82 129.501 1515.69 129.501 1535.3H133.501ZM131.971 1534.01C132.771 1533.88 133.501 1534.5 133.501 1535.3H129.501C129.501 1536.97 130.991 1538.23 132.631 1537.95L131.971 1534V1534.01ZM135.381 1533.72C134.221 1533.72 133.071 1533.82 131.961 1534.01L132.631 1537.95C133.521 1537.8 134.441 1537.72 135.371 1537.72V1533.72H135.381ZM155.821 1554.16C155.821 1542.88 146.661 1533.72 135.381 1533.72V1537.72C144.461 1537.72 151.821 1545.08 151.821 1554.16H155.821ZM135.381 1574.55C146.661 1574.55 155.821 1565.45 155.821 1554.16H151.821C151.821 1563.23 144.461 1570.55 135.381 1570.55V1574.55ZM59.5409 1574.55H135.381V1570.55H59.5409V1574.55ZM132.301 1535.98L132.631 1537.95L132.291 1535.98H132.301Z" fill="#0076FE"/>
<path d="M58.3501 1525.89H58.36V1521.89H58.3501V1525.89ZM42.55 1532.43C46.59 1528.39 52.1801 1525.89 58.3501 1525.89V1521.89C51.0801 1521.89 44.4901 1524.85 39.7301 1529.61L42.5601 1532.44L42.55 1532.43ZM36.01 1548.22C36.01 1542.05 38.5 1536.48 42.55 1532.44L39.7201 1529.61C34.9501 1534.37 32 1540.95 32 1548.23H36L36.01 1548.22ZM42.55 1564.02C38.5 1559.97 36.01 1554.39 36.01 1548.22H32.01C32.01 1555.49 34.9601 1562.07 39.7301 1566.84L42.5601 1564.01L42.55 1564.02ZM58.3501 1570.56C52.1801 1570.56 46.6 1568.07 42.55 1564.02L39.7201 1566.85C44.4901 1571.62 51.0701 1574.57 58.3401 1574.57V1570.57L58.3501 1570.56ZM74.15 1564.02C70.1 1568.07 64.5201 1570.56 58.3501 1570.56V1574.56C65.6201 1574.56 72.2001 1571.61 76.9701 1566.84L74.14 1564.01L74.15 1564.02ZM80.6901 1548.22C80.6901 1554.39 78.2 1559.97 74.15 1564.02L76.9801 1566.85C81.7501 1562.08 84.7001 1555.5 84.7001 1548.23H80.7001L80.6901 1548.22ZM58.36 1525.89C70.7 1525.89 80.6901 1535.88 80.6901 1548.22H84.6901C84.6901 1533.68 72.9 1521.89 58.36 1521.89V1525.89Z" fill="#0076FE"/>
<path d="M46.6094 1548.22C46.6094 1541.73 51.8694 1536.47 58.3594 1536.47V1532.47C49.6694 1532.47 42.6094 1539.53 42.6094 1548.22H46.6094ZM58.3594 1559.97C51.8694 1559.97 46.6094 1554.71 46.6094 1548.22H42.6094C42.6094 1556.91 49.6694 1563.97 58.3594 1563.97V1559.97ZM70.1094 1548.22C70.1094 1554.71 64.8494 1559.97 58.3594 1559.97V1563.97C67.0494 1563.97 74.1094 1556.91 74.1094 1548.22H70.1094ZM58.3594 1536.47C64.8494 1536.47 70.1094 1541.73 70.1094 1548.22H74.1094C74.1094 1539.53 67.0694 1532.47 58.3594 1532.47V1536.47Z" fill="#0076FE"/>
<path d="M54.1602 1548.22C54.1602 1545.82 56.1101 1543.87 58.5101 1543.87V1539.87C53.8901 1539.87 50.1602 1543.62 50.1602 1548.22H54.1602ZM58.5101 1543.87C59.6101 1543.87 60.5101 1542.97 60.5101 1541.87C60.5101 1540.77 59.6101 1539.87 58.5101 1539.87V1543.87ZM50.1602 1548.22C50.1602 1549.32 51.0602 1550.22 52.1602 1550.22C53.2602 1550.22 54.1602 1549.32 54.1602 1548.22H50.1602Z" fill="#FC0C35"/>
<path d="M118.469 1554.45C118.469 1545.24 125.929 1537.78 135.139 1537.78V1533.78C123.729 1533.78 114.469 1543.04 114.469 1554.45H118.469ZM135.139 1537.78C136.239 1537.78 137.139 1536.88 137.139 1535.78C137.139 1534.68 136.239 1533.78 135.139 1533.78V1537.78ZM114.469 1554.45C114.469 1555.55 115.369 1556.45 116.469 1556.45C117.569 1556.45 118.469 1555.55 118.469 1554.45H114.469Z" fill="#0076FE"/>
</g>
<g opacity="0.2">
<path d="M90.5975 1285H66.168V1289.08H90.5975V1285ZM102 1296.32C102 1290.07 96.89 1285 90.5975 1285V1289.08C94.628 1289.08 97.8873 1292.32 97.8873 1296.32H102ZM102 1363.68V1296.32H97.8873V1363.68H102ZM90.5975 1375C96.89 1375 102 1369.93 102 1363.68H97.8873C97.8873 1367.68 94.628 1370.92 90.5975 1370.92V1375ZM59.4025 1375H90.5975V1370.92H59.4025V1375ZM48 1363.68C48 1369.93 53.11 1375 59.4025 1375V1370.92C55.372 1370.92 52.1127 1367.68 52.1127 1363.68H48ZM48 1303.28V1363.68H52.1127V1303.28H48ZM66.168 1285C65.037 1285 64.1116 1285.92 64.1116 1287.04C64.1116 1288.17 65.037 1289.08 66.168 1289.08V1285ZM52.1127 1303.28C52.1127 1302.15 51.1874 1301.24 50.0564 1301.24C48.9254 1301.24 48 1302.15 48 1303.28H52.1127Z" fill="#0076FE"/>
<path d="M52.1127 1296.32C52.1127 1292.32 55.372 1289.08 59.4025 1289.08V1285C53.11 1285 48 1290.07 48 1296.32H52.1127ZM59.4025 1289.08C60.5335 1289.08 61.4588 1288.17 61.4588 1287.04C61.4588 1285.92 60.5335 1285 59.4025 1285V1289.08ZM48 1296.32C48 1297.45 48.9254 1298.37 50.0564 1298.37C51.1874 1298.37 52.1127 1297.45 52.1127 1296.32H48Z" fill="#FC0C35"/>
<path d="M75.0048 1301.88C76.7765 1301.88 78.2127 1300.46 78.2127 1298.7C78.2127 1296.94 76.7765 1295.51 75.0048 1295.51C73.2331 1295.51 71.7969 1296.94 71.7969 1298.7C71.7969 1300.46 73.2331 1301.88 75.0048 1301.88Z" fill="#0076FE"/>
<path d="M87.3637 1317.38H62.6462V1321.47H87.3637V1317.38ZM62.6462 1317.38C61.5152 1317.38 60.5898 1318.3 60.5898 1319.43C60.5898 1320.55 61.5152 1321.47 62.6462 1321.47V1317.38ZM87.3637 1321.47C88.4947 1321.47 89.42 1320.55 89.42 1319.43C89.42 1318.3 88.4947 1317.38 87.3637 1317.38V1321.47Z" fill="#0076FE"/>
<path d="M87.3637 1334.29H62.6462V1338.38H87.3637V1334.29ZM62.6462 1334.29C61.5152 1334.29 60.5898 1335.21 60.5898 1336.33C60.5898 1337.46 61.5152 1338.38 62.6462 1338.38V1334.29ZM87.3637 1338.38C88.4947 1338.38 89.42 1337.46 89.42 1336.33C89.42 1335.21 88.4947 1334.29 87.3637 1334.29V1338.38Z" fill="#0076FE"/>
<path d="M87.3637 1351.2H62.6462V1355.29H87.3637V1351.2ZM62.6462 1351.2C61.5152 1351.2 60.5898 1352.12 60.5898 1353.24C60.5898 1354.37 61.5152 1355.29 62.6462 1355.29V1351.2ZM87.3637 1355.29C88.4947 1355.29 89.42 1354.37 89.42 1353.24C89.42 1352.12 88.4947 1351.2 87.3637 1351.2V1355.29Z" fill="#0076FE"/>
</g>
<g opacity="0.2">
<path d="M181.985 1431.46V1398.64H178V1431.46H181.985ZM192.606 1442.03C186.738 1442.03 181.985 1437.3 181.985 1431.46H178C178 1439.48 184.546 1446 192.606 1446V1442.03ZM233.394 1442.03H192.606V1446H233.394V1442.03ZM244.015 1431.46C244.015 1437.3 239.262 1442.03 233.394 1442.03V1446C241.454 1446 248 1439.48 248 1431.46H244.015ZM244.015 1389.54V1431.46H248V1389.54H244.015ZM233.394 1378.97C239.262 1378.97 244.015 1383.7 244.015 1389.54H248C248 1381.52 241.454 1375 233.394 1375V1378.97ZM202.051 1378.97H233.394V1375H202.051V1378.97ZM181.985 1398.64C181.985 1397.55 181.089 1396.65 179.993 1396.65C178.897 1396.65 178 1397.55 178 1398.64H181.985ZM202.051 1375C200.955 1375 200.058 1375.89 200.058 1376.98C200.058 1378.07 200.955 1378.97 202.051 1378.97V1375Z" fill="#0076FE"/>
<path d="M192.606 1375C184.546 1375 178 1381.52 178 1389.54H181.985C181.985 1383.7 186.738 1378.97 192.606 1378.97V1375ZM178 1389.54C178 1390.63 178.897 1391.53 179.993 1391.53C181.089 1391.53 181.985 1390.63 181.985 1389.54H178ZM192.606 1378.97C193.702 1378.97 194.598 1378.07 194.598 1376.98C194.598 1375.89 193.702 1375 192.606 1375V1378.97Z" fill="#FC0C35"/>
<path d="M197.766 1405.23V1392.46H193.781V1405.23H197.766ZM208.606 1403.25H195.774V1407.22H208.606V1403.25ZM206.614 1392.46V1405.23H210.599V1392.46H206.614ZM195.774 1394.44H208.606V1390.47H195.774V1394.44ZM195.774 1405.23H193.781C193.781 1406.32 194.678 1407.22 195.774 1407.22V1405.23ZM208.606 1405.23V1407.22C209.702 1407.22 210.599 1406.32 210.599 1405.23H208.606ZM208.606 1392.46H210.599C210.599 1391.37 209.702 1390.47 208.606 1390.47V1392.46ZM195.774 1392.46V1390.47C194.678 1390.47 193.781 1391.37 193.781 1392.46H195.774Z" fill="#0076FE"/>
<path d="M219.407 1405.23V1392.46H215.422V1405.23H219.407ZM230.247 1403.25H217.414V1407.22H230.247V1403.25ZM228.254 1392.46V1405.23H232.239V1392.46H228.254ZM217.414 1394.44H230.247V1390.47H217.414V1394.44ZM217.414 1405.23H215.422C215.422 1406.32 216.319 1407.22 217.414 1407.22V1405.23ZM230.247 1405.23V1407.22C231.343 1407.22 232.239 1406.32 232.239 1405.23H230.247ZM230.247 1392.46H232.239C232.239 1391.37 231.343 1390.47 230.247 1390.47V1392.46ZM217.414 1392.46V1390.47C216.319 1390.47 215.422 1391.37 215.422 1392.46H217.414Z" fill="#0076FE"/>
<path d="M228.246 1415.77V1428.54H232.232V1415.77H228.246ZM217.407 1417.75H230.239V1413.78H217.407V1417.75ZM219.399 1428.54V1415.77H215.414V1428.54H219.399ZM230.239 1426.56H217.407V1430.53H230.239V1426.56ZM230.239 1415.77H232.232C232.232 1414.68 231.335 1413.78 230.239 1413.78V1415.77ZM217.407 1415.77V1413.78C216.311 1413.78 215.414 1414.68 215.414 1415.77H217.407ZM217.407 1428.54H215.414C215.414 1429.63 216.311 1430.53 217.407 1430.53V1428.54ZM230.239 1428.54V1430.53C231.335 1430.53 232.232 1429.63 232.232 1428.54H230.239Z" fill="#0076FE"/>
<path d="M206.606 1415.77V1428.54H210.591V1415.77H206.606ZM195.766 1417.75H208.598V1413.78H195.766V1417.75ZM197.759 1428.54V1415.77H193.773V1428.54H197.759ZM208.598 1426.56H195.766V1430.53H208.598V1426.56ZM208.598 1415.77H210.591C210.591 1414.68 209.694 1413.78 208.598 1413.78V1415.77ZM195.766 1415.77V1413.78C194.67 1413.78 193.773 1414.68 193.773 1415.77H195.766ZM195.766 1428.54H193.773C193.773 1429.63 194.67 1430.53 195.766 1430.53V1428.54ZM208.598 1428.54V1430.53C209.694 1430.53 210.591 1429.63 210.591 1428.54H208.598Z" fill="#0076FE"/>
</g>
<g opacity="0.2">
<path d="M166 795.92V762.83H162V795.92H166ZM176.66 806.58C170.77 806.58 166 801.81 166 795.92H162C162 804.01 168.57 810.58 176.66 810.58V806.58ZM217.6 806.58H176.66V810.58H217.6V806.58ZM228.26 795.92C228.26 801.81 223.49 806.58 217.6 806.58V810.58C225.69 810.58 232.26 804.01 232.26 795.92H228.26ZM228.26 753.66V795.92H232.26V753.66H228.26ZM217.6 743C223.49 743 228.26 747.77 228.26 753.66H232.26C232.26 745.57 225.69 739 217.6 739V743ZM186.14 743H217.6V739H186.14V743ZM166 762.83C166 761.73 165.1 760.83 164 760.83C162.9 760.83 162 761.73 162 762.83H166ZM186.14 739C185.04 739 184.14 739.9 184.14 741C184.14 742.1 185.04 743 186.14 743V739Z" fill="#0076FE"/>
<path d="M176.66 739C168.57 739 162 745.57 162 753.66H166C166 747.77 170.77 743 176.66 743V739ZM162 753.66C162 754.76 162.9 755.66 164 755.66C165.1 755.66 166 754.76 166 753.66H162ZM176.66 743C177.76 743 178.66 742.1 178.66 741C178.66 739.9 177.76 739 176.66 739V743Z" fill="#FC0C35"/>
<path d="M197.128 756.74C207.098 756.74 215.178 764.82 215.178 774.79H219.178C219.178 762.61 209.308 752.74 197.128 752.74V756.74ZM179.078 774.79C179.078 764.82 187.158 756.74 197.128 756.74V752.74C184.948 752.74 175.078 762.61 175.078 774.79H179.078ZM197.128 792.84C187.158 792.84 179.078 784.76 179.078 774.79H175.078C175.078 786.97 184.948 796.84 197.128 796.84V792.84ZM215.178 774.79C215.178 784.76 207.098 792.84 197.128 792.84V796.84C209.308 796.84 219.178 786.97 219.178 774.79H215.178Z" fill="#0076FE"/>
<path d="M197.129 769.62C199.979 769.62 202.289 771.93 202.289 774.78H206.289C206.289 769.72 202.189 765.62 197.129 765.62V769.62ZM191.969 774.78C191.969 771.93 194.279 769.62 197.129 769.62V765.62C192.069 765.62 187.969 769.72 187.969 774.78H191.969ZM197.129 779.94C194.279 779.94 191.969 777.63 191.969 774.78H187.969C187.969 779.84 192.069 783.94 197.129 783.94V779.94ZM202.289 774.78C202.289 777.63 199.979 779.94 197.129 779.94V783.94C202.189 783.94 206.289 779.84 206.289 774.78H202.289Z" fill="#0076FE"/>
</g>
<g opacity="0.2">
<path d="M165.211 926.901C166.896 926.901 168.262 925.535 168.262 923.85C168.262 922.165 166.896 920.799 165.211 920.799C163.526 920.799 162.16 922.165 162.16 923.85C162.16 925.535 163.526 926.901 165.211 926.901Z" fill="#0076FE"/>
<path d="M175.047 926.901C176.732 926.901 178.098 925.535 178.098 923.85C178.098 922.165 176.732 920.799 175.047 920.799C173.362 920.799 171.996 922.165 171.996 923.85C171.996 925.535 173.362 926.901 175.047 926.901Z" fill="#0076FE"/>
<path d="M184.883 926.901C186.568 926.901 187.934 925.535 187.934 923.85C187.934 922.165 186.568 920.799 184.883 920.799C183.198 920.799 181.832 922.165 181.832 923.85C181.832 925.535 183.198 926.901 184.883 926.901Z" fill="#0076FE"/>
<path d="M194.723 926.901C196.408 926.901 197.774 925.535 197.774 923.85C197.774 922.165 196.408 920.799 194.723 920.799C193.038 920.799 191.672 922.165 191.672 923.85C191.672 925.535 193.038 926.901 194.723 926.901Z" fill="#0076FE"/>
<path d="M104.912 954.664V922.304H101V954.664H104.912ZM115.336 965.088C109.576 965.088 104.912 960.424 104.912 954.664H101C101 962.575 107.425 969 115.336 969V965.088ZM195.409 965.088H115.336V969H195.409V965.088ZM205.834 954.664C205.834 960.424 201.169 965.088 195.409 965.088V969C203.321 969 209.745 962.575 209.745 954.664H205.834ZM205.834 913.336V954.664H209.745V913.336H205.834ZM195.409 902.912C201.169 902.912 205.834 907.576 205.834 913.336H209.745C209.745 905.425 203.321 899 195.409 899V902.912ZM124.607 902.912H195.409V899H124.607V902.912ZM104.912 922.304C104.912 921.228 104.032 920.348 102.956 920.348C101.88 920.348 101 921.228 101 922.304H104.912ZM124.607 899C123.531 899 122.651 899.88 122.651 900.956C122.651 902.032 123.531 902.912 124.607 902.912V899Z" fill="#0076FE"/>
<path d="M115.336 899C107.425 899 101 905.425 101 913.336H104.912C104.912 907.576 109.576 902.912 115.336 902.912V899ZM101 913.336C101 914.412 101.88 915.292 102.956 915.292C104.032 915.292 104.912 914.412 104.912 913.336H101ZM115.336 902.912C116.412 902.912 117.292 902.032 117.292 900.956C117.292 899.88 116.412 899 115.336 899V902.912Z" fill="#FC0C35"/>
<path d="M102.956 937.569H207.79V933.657H102.956V937.569ZM104.912 951.661V935.613H101V951.661H104.912ZM207.79 949.705H102.956V953.617H207.79V949.705ZM205.834 935.613V951.661H209.745V935.613H205.834ZM102.956 935.613V933.657C101.88 933.657 101 934.537 101 935.613H102.956ZM102.956 951.661H101C101 952.737 101.88 953.617 102.956 953.617V951.661ZM207.79 951.661V953.617C208.865 953.617 209.745 952.737 209.745 951.661H207.79ZM207.79 935.613H209.745C209.745 934.537 208.865 933.657 207.79 933.657V935.613Z" fill="#0076FE"/>
</g>
<g opacity="0.2">
<path d="M51.92 792.33L49.09 789.49H49.08L51.91 792.33H51.92ZM78.44 800.48C71.29 793.33 61.42 788.91 50.51 788.91V792.91C60.32 792.91 69.1901 796.87 75.6201 803.3L78.45 800.47L78.44 800.48ZM90.01 828.41C90.01 817.5 85.58 807.62 78.44 800.48L75.61 803.31C82.03 809.73 86 818.61 86 828.42H90L90.01 828.41ZM78.44 856.34C85.59 849.19 90.01 839.32 90.01 828.41H86.01C86.01 838.22 82.0501 847.09 75.6201 853.52L78.45 856.35L78.44 856.34ZM50.51 867.91C61.42 867.91 71.29 863.48 78.44 856.35L75.61 853.52C69.18 859.94 60.31 863.92 50.5 863.92V867.92L50.51 867.91ZM22.58 856.34C29.73 863.49 39.6 867.91 50.51 867.91V863.91C40.7 863.91 31.83 859.95 25.4 853.52L22.57 856.35L22.58 856.34ZM11.01 828.41C11.01 839.32 15.44 849.19 22.57 856.34L25.4 853.51C18.98 847.08 15 838.21 15 828.4H11L11.01 828.41ZM50.52 788.9C28.7 788.9 11.01 806.59 11.01 828.41H15.01C15.01 808.79 30.9 792.9 50.52 792.9V788.9ZM50.51 790.91L49.1 789.5L45.69 792.91H50.52V790.91H50.51ZM23.9901 854.93L22.57 856.34L23.98 854.93H23.9901ZM50.52 790.9L51.9301 792.31L55.34 788.9H50.51V790.9H50.52Z" fill="#0076FE"/>
<path d="M73.7086 828.41C73.7086 815.6 63.3186 805.21 50.5086 805.21V809.21C61.1186 809.21 69.7086 817.8 69.7086 828.41H73.7086ZM50.5086 851.61C63.3186 851.61 73.7086 841.22 73.7086 828.41H69.7086C69.7086 839.02 61.1186 847.61 50.5086 847.61V851.61ZM27.3086 828.41C27.3086 841.22 37.6986 851.61 50.5086 851.61V847.61C39.8986 847.61 31.3086 839.02 31.3086 828.41H27.3086ZM50.5086 805.21C37.6986 805.21 27.3086 815.6 27.3086 828.41H31.3086C31.3086 817.8 39.8986 809.21 50.5086 809.21V805.21Z" fill="#0076FE"/>
<path d="M58.4493 780H42.1094V784H58.4493V780ZM42.1094 780C41.0094 780 40.1094 780.9 40.1094 782C40.1094 783.1 41.0094 784 42.1094 784V780ZM58.4493 784C59.5493 784 60.4493 783.1 60.4493 782C60.4493 780.9 59.5493 780 58.4493 780V784Z" fill="#0076FE"/>
<path d="M52.6308 827.02L44.5509 818.61L41.6709 821.38L49.7508 829.79L52.6308 827.02ZM44.5509 818.61C43.7809 817.81 42.5209 817.79 41.7209 818.55C40.9209 819.32 40.9009 820.58 41.6609 821.38L44.5409 818.61H44.5509ZM49.7508 829.79C50.5208 830.59 51.7808 830.61 52.5808 829.85C53.3808 829.08 53.4008 827.82 52.6408 827.02L49.7608 829.79H49.7508Z" fill="#FC0C35"/>
</g>
<g opacity="0.2">
<path d="M161.94 645.84L163.38 646.02L163.88 642.05L162.44 641.87L161.94 645.84ZM149.28 648.36C154.1 648.36 158.73 647.42 162.94 645.71L161.44 642C157.69 643.52 153.58 644.35 149.28 644.35V648.35V648.36ZM135.62 645.71C139.84 647.41 144.46 648.36 149.28 648.36V644.36C144.98 644.36 140.88 643.52 137.12 642.01L135.62 645.72V645.71ZM134.8 645.86H136.37V641.86H134.8V645.86ZM122 660.93L136.28 645.2L133.32 642.51L119.04 658.24L122 660.93ZM127.9 664.74L122 658.24L119.04 660.93L124.94 667.43L127.9 664.74ZM149.13 653.19C139.51 653.19 130.89 657.69 124.89 664.79L127.95 667.37C133.27 661.07 140.81 657.19 149.13 657.19V653.19ZM173.37 664.79C167.37 657.69 158.75 653.19 149.13 653.19V657.19C157.45 657.19 164.99 661.07 170.31 667.37L173.37 664.79ZM176.26 658.24L170.36 664.74L173.32 667.43L179.22 660.93L176.26 658.24ZM162.15 645.39L176.26 660.93L179.22 658.24L165.11 642.7L162.15 645.39ZM163.63 644.04H165.63V642.27L163.88 642.05L163.63 644.03V644.04ZM162.19 643.86L162.44 641.88L161.92 641.82L161.44 642.02L162.19 643.87V643.86ZM136.37 643.86L137.12 642.01L136.76 641.86H136.37V643.86ZM134.8 643.86V641.86H133.91L133.31 642.52L134.79 643.86H134.8ZM120.52 659.59L119.04 658.25L117.82 659.59L119.04 660.93L120.52 659.59ZM126.42 666.09L124.94 667.43L126.47 669.12L127.94 667.38L126.41 666.09H126.42ZM171.84 666.09L170.31 667.38L171.78 669.12L173.31 667.43L171.83 666.09H171.84ZM177.74 659.59L179.22 660.93L180.44 659.59L179.22 658.25L177.74 659.59ZM163.63 644.05H161.63V644.82L162.15 645.39L163.63 644.05Z" fill="#0076FE"/>
<path d="M117 612.17C117 594.4 131.4 580 149.17 580V576C129.2 576 113 592.2 113 612.17H117ZM149.17 644.34C131.4 644.34 117 629.94 117 612.17H113C113 632.14 129.2 648.34 149.17 648.34V644.34ZM181.34 612.17C181.34 629.94 166.94 644.34 149.17 644.34V648.34C169.14 648.34 185.34 632.14 185.34 612.17H181.34ZM149.17 580C166.94 580 181.34 594.4 181.34 612.17H185.34C185.34 592.2 169.14 576 149.17 576V580Z" fill="#0076FE"/>
<path d="M149.169 594.86C158.729 594.86 166.479 602.61 166.479 612.17H170.479C170.479 600.4 160.939 590.86 149.169 590.86V594.86ZM131.859 612.17C131.859 602.61 139.609 594.86 149.169 594.86V590.86C137.399 590.86 127.859 600.4 127.859 612.17H131.859ZM149.169 629.48C139.609 629.48 131.859 621.73 131.859 612.17H127.859C127.859 623.94 137.399 633.48 149.169 633.48V629.48ZM166.479 612.17C166.479 621.73 158.729 629.48 149.169 629.48V633.48C160.939 633.48 170.479 623.94 170.479 612.17H166.479Z" fill="#0076FE"/>
<path d="M142.461 612.17C142.461 608.35 145.551 605.26 149.371 605.26V601.26C143.351 601.26 138.461 606.15 138.461 612.17H142.461ZM149.371 605.26C150.471 605.26 151.371 604.36 151.371 603.26C151.371 602.16 150.471 601.26 149.371 601.26V605.26ZM138.461 612.17C138.461 613.27 139.361 614.17 140.461 614.17C141.561 614.17 142.461 613.27 142.461 612.17H138.461Z" fill="#FC0C35"/>
</g>
</svg>
