<svg width="48" height="80" viewBox="0 0 48 80" fill="none" xmlns="http://www.w3.org/2000/svg">
<path d="M37.7707 0H16.2026V3.631H37.7707V0ZM47.8376 10.067C47.8376 4.51153 43.3262 0 37.7707 0V3.631C41.3291 3.631 44.2066 6.50858 44.2066 10.067H47.8376ZM47.8376 69.9331V10.067H44.2066V69.9331H47.8376ZM37.7707 80C43.3262 80 47.8376 75.4885 47.8376 69.9331H44.2066C44.2066 73.4914 41.3291 76.369 37.7707 76.369V80ZM10.2296 80H37.7707V76.369H10.2296V80ZM0.162598 69.9331C0.162598 75.4885 4.67414 80 10.2296 80V76.369C6.67119 76.369 3.7936 73.4914 3.7936 69.9331H0.162598ZM0.162598 16.2397V69.9331H3.7936V16.2397H0.162598ZM16.2026 0C15.2041 0 14.3871 0.816975 14.3871 1.8155C14.3871 2.81402 15.2041 3.631 16.2026 3.631V0ZM3.7936 16.2397C3.7936 15.2411 2.97662 14.4242 1.9781 14.4242C0.979573 14.4242 0.162598 15.2411 0.162598 16.2397H3.7936Z" fill="#0076FE"/>
<path d="M3.7936 10.067C3.7936 6.50858 6.67119 3.631 10.2296 3.631V0C4.67414 0 0.162598 4.51153 0.162598 10.067H3.7936ZM10.2296 3.631C11.2281 3.631 12.0451 2.81402 12.0451 1.8155C12.0451 0.816975 11.2281 0 10.2296 0V3.631ZM0.162598 10.067C0.162598 11.0655 0.979573 11.8825 1.9781 11.8825C2.97662 11.8825 3.7936 11.0655 3.7936 10.067H0.162598Z" fill="#FC0C35"/>
<path d="M23.9972 15.0042C25.5614 15.0042 26.8294 13.7362 26.8294 12.172C26.8294 10.6078 25.5614 9.33984 23.9972 9.33984C22.433 9.33984 21.165 10.6078 21.165 12.172C21.165 13.7362 22.433 15.0042 23.9972 15.0042Z" fill="#0076FE"/>
<path d="M34.9098 28.7856H13.0875V32.4166H34.9098V28.7856ZM13.0875 28.7856C12.0889 28.7856 11.272 29.6026 11.272 30.6011C11.272 31.5997 12.0889 32.4166 13.0875 32.4166V28.7856ZM34.9098 32.4166C35.9083 32.4166 36.7253 31.5997 36.7253 30.6011C36.7253 29.6026 35.9083 28.7856 34.9098 28.7856V32.4166Z" fill="#0076FE"/>
<path d="M34.9098 43.8167H13.0875V47.4476H34.9098V43.8167ZM13.0875 43.8167C12.0889 43.8167 11.272 44.6336 11.272 45.6322C11.272 46.6307 12.0889 47.4476 13.0875 47.4476V43.8167ZM34.9098 47.4476C35.9083 47.4476 36.7253 46.6307 36.7253 45.6322C36.7253 44.6336 35.9083 43.8167 34.9098 43.8167V47.4476Z" fill="#0076FE"/>
<path d="M34.9098 58.8495H13.0875V62.4805H34.9098V58.8495ZM13.0875 58.8495C12.0889 58.8495 11.272 59.6665 11.272 60.665C11.272 61.6635 12.0889 62.4805 13.0875 62.4805V58.8495ZM34.9098 62.4805C35.9083 62.4805 36.7253 61.6635 36.7253 60.665C36.7253 59.6665 35.9083 58.8495 34.9098 58.8495V62.4805Z" fill="#0076FE"/>
</svg>
