<svg width="79" height="80" viewBox="0 0 79 80" fill="none" xmlns="http://www.w3.org/2000/svg">
<path d="M4.70832 63.6156V26.6332H0.237793V63.6156H4.70832ZM16.6223 75.5295C10.0395 75.5295 4.70832 70.1984 4.70832 63.6156H0.237793C0.237793 72.6572 7.58067 80 16.6223 80V75.5295ZM62.3781 75.5295H16.6223V80H62.3781V75.5295ZM74.292 63.6156C74.292 70.1984 68.961 75.5295 62.3781 75.5295V80C71.4197 80 78.7626 72.6572 78.7626 63.6156H74.292ZM74.292 16.3845V63.6156H78.7626V16.3845H74.292ZM62.3781 4.47052C68.961 4.47052 74.292 9.80163 74.292 16.3845H78.7626C78.7626 7.34284 71.4197 0 62.3781 0V4.47052ZM27.2174 4.47052H62.3781V0H27.2174V4.47052ZM4.70832 26.6332C4.70832 25.4038 3.70245 24.3979 2.47305 24.3979C1.24366 24.3979 0.237793 25.4038 0.237793 26.6332H4.70832ZM27.2174 0C25.988 0 24.9822 1.00587 24.9822 2.23526C24.9822 3.46466 25.988 4.47052 27.2174 4.47052V0Z" fill="white"/>
<path d="M16.6223 0C7.58067 0 0.237793 7.34284 0.237793 16.3845H4.70832C4.70832 9.80163 10.0395 4.47052 16.6223 4.47052V0ZM0.237793 16.3845C0.237793 17.6139 1.24366 18.6197 2.47305 18.6197C3.70245 18.6197 4.70832 17.6139 4.70832 16.3845H0.237793ZM16.6223 4.47052C17.8517 4.47052 18.8576 3.46466 18.8576 2.23526C18.8576 1.00587 17.8517 0 16.6223 0V4.47052Z" fill="#FC0C35"/>
<path d="M31.5576 23.4936C26.9977 18.9336 19.599 18.9336 15.0391 23.4936L18.2019 26.6564C21.0183 23.84 25.5783 23.84 28.3947 26.6564L31.5576 23.4936ZM15.0391 23.4936C14.1673 24.3653 14.1673 25.7847 15.0391 26.6564C15.9108 27.5282 17.3302 27.5282 18.2019 26.6564L15.0391 23.4936ZM28.3947 26.6564C29.2665 27.5282 30.6859 27.5282 31.5576 26.6564C32.4294 25.7847 32.4294 24.3653 31.5576 23.4936L28.3947 26.6564Z" fill="white"/>
<path d="M60.3208 23.4936C55.7609 18.9336 48.3622 18.9336 43.8023 23.4936L46.9651 26.6564C49.7815 23.84 54.3415 23.84 57.1579 26.6564L60.3208 23.4936ZM43.8023 23.4936C42.9305 24.3653 42.9305 25.7847 43.8023 26.6564C44.674 27.5282 46.0933 27.5282 46.9651 26.6564L43.8023 23.4936ZM57.1579 26.6564C58.0296 27.5282 59.449 27.5282 60.3208 26.6564C61.1926 25.7847 61.1926 24.3653 60.3208 23.4936L57.1579 26.6564Z" fill="white"/>
<path d="M42.8612 66.2092C49.31 66.2092 54.5405 60.9787 54.5405 54.5299H50.07C50.07 58.5199 46.8512 61.7387 42.8612 61.7387V66.2092ZM54.5405 54.5299C54.5405 53.3005 53.5346 52.2947 52.3052 52.2947C51.0758 52.2947 50.07 53.3005 50.07 54.5299H54.5405ZM42.8612 61.7387C41.6318 61.7387 40.626 62.7445 40.626 63.9739C40.626 65.2033 41.6318 66.2092 42.8612 66.2092V61.7387Z" fill="white"/>
<path d="M29.9626 46.5958L41.1278 49.2446L42.156 44.8971L30.9908 42.2483L29.9626 46.5958ZM36.8137 31.6308L28.655 43.1312L32.2985 45.7129L40.4572 34.2125L36.8137 31.6308ZM41.1278 49.2446C42.3236 49.524 43.5306 48.7864 43.8212 47.5906C44.1118 46.3947 43.363 45.1876 42.1672 44.8971L41.139 49.2446H41.1278ZM30.4767 44.4165L28.655 43.12C28.2303 43.7235 28.1297 44.5059 28.3868 45.1988C28.6438 45.8917 29.2362 46.417 29.9626 46.5847L30.4767 44.4053V44.4165ZM40.4572 34.2125C41.1725 33.2066 40.9378 31.8096 39.9319 31.0943C38.926 30.379 37.529 30.6137 36.8137 31.6196L40.4572 34.2013V34.2125Z" fill="white"/>
</svg>
