<svg width="79" height="80" viewBox="0 0 79 80" fill="none" xmlns="http://www.w3.org/2000/svg">
<path d="M4.55384 63.6156V26.6332H0.0634766V63.6156H4.55384ZM16.5207 75.5295C9.9086 75.5295 4.55384 70.1984 4.55384 63.6156H0.0634766C0.0634766 72.6572 7.4389 80 16.5207 80V75.5295ZM62.4795 75.5295H16.5207V80H62.4795V75.5295ZM74.4464 63.6156C74.4464 70.1984 69.0916 75.5295 62.4795 75.5295V80C71.5613 80 78.9367 72.6572 78.9367 63.6156H74.4464ZM74.4464 16.3845V63.6156H78.9367V16.3845H74.4464ZM62.4795 4.47052C69.0916 4.47052 74.4464 9.80163 74.4464 16.3845H78.9367C78.9367 7.34284 71.5613 0 62.4795 0V4.47052ZM27.1628 4.47052H62.4795V0H27.1628V4.47052ZM4.55384 26.6332C4.55384 25.4038 3.54351 24.3979 2.30866 24.3979C1.07381 24.3979 0.0634766 25.4038 0.0634766 26.6332H4.55384ZM27.1628 0C25.928 0 24.9177 1.00587 24.9177 2.23526C24.9177 3.46466 25.928 4.47052 27.1628 4.47052V0Z" fill="#0076FE"/>
<path d="M16.5207 0C7.4389 0 0.0634766 7.34284 0.0634766 16.3845H4.55384C4.55384 9.80163 9.9086 4.47052 16.5207 4.47052V0ZM0.0634766 16.3845C0.0634766 17.6139 1.07381 18.6197 2.30866 18.6197C3.54351 18.6197 4.55384 17.6139 4.55384 16.3845H0.0634766ZM16.5207 4.47052C17.7555 4.47052 18.7658 3.46466 18.7658 2.23526C18.7658 1.00587 17.7555 0 16.5207 0V4.47052Z" fill="#FC0C35"/>
<path d="M22.3351 34.0652V19.6701H17.8447V34.0652H22.3351ZM34.5488 31.8299H20.0899V36.3004H34.5488V31.8299ZM32.3037 19.6701V34.0652H36.794V19.6701H32.3037ZM20.0899 21.9053H34.5488V17.4348H20.0899V21.9053ZM20.0899 34.0652H17.8447C17.8447 35.2946 18.8551 36.3004 20.0899 36.3004V34.0652ZM34.5488 34.0652V36.3004C35.7837 36.3004 36.794 35.2946 36.794 34.0652H34.5488ZM34.5488 19.6701H36.794C36.794 18.4407 35.7837 17.4348 34.5488 17.4348V19.6701ZM20.0899 19.6701V17.4348C18.8551 17.4348 17.8447 18.4407 17.8447 19.6701H20.0899Z" fill="#0076FE"/>
<path d="M46.7189 34.0652V19.6701H42.2285V34.0652H46.7189ZM58.9326 31.8299H44.4737V36.3004H58.9326V31.8299ZM56.6875 19.6701V34.0652H61.1778V19.6701H56.6875ZM44.4737 21.9053H58.9326V17.4348H44.4737V21.9053ZM44.4737 34.0652H42.2285C42.2285 35.2946 43.2388 36.3004 44.4737 36.3004V34.0652ZM58.9326 34.0652V36.3004C60.1675 36.3004 61.1778 35.2946 61.1778 34.0652H58.9326ZM58.9326 19.6701H61.1778C61.1778 18.4407 60.1675 17.4348 58.9326 17.4348V19.6701ZM44.4737 19.6701V17.4348C43.2388 17.4348 42.2285 18.4407 42.2285 19.6701H44.4737Z" fill="#0076FE"/>
<path d="M56.6787 45.9345V60.3296H61.1691V45.9345H56.6787ZM44.4649 48.1697H58.9239V43.6992H44.4649V48.1697ZM46.7101 60.3296V45.9345H42.2197V60.3296H46.7101ZM58.9239 58.0943H44.4649V62.5648H58.9239V58.0943ZM58.9239 45.9345H61.1691C61.1691 44.7051 60.1587 43.6992 58.9239 43.6992V45.9345ZM44.4649 45.9345V43.6992C43.2301 43.6992 42.2197 44.7051 42.2197 45.9345H44.4649ZM44.4649 60.3296H42.2197C42.2197 61.559 43.2301 62.5648 44.4649 62.5648V60.3296ZM58.9239 60.3296V62.5648C60.1587 62.5648 61.1691 61.559 61.1691 60.3296H58.9239Z" fill="#0076FE"/>
<path d="M32.2949 45.9345V60.3296H36.7853V45.9345H32.2949ZM20.0811 48.1697H34.5401V43.6992H20.0811V48.1697ZM22.3263 60.3296V45.9345H17.8359V60.3296H22.3263ZM34.5401 58.0943H20.0811V62.5648H34.5401V58.0943ZM34.5401 45.9345H36.7853C36.7853 44.7051 35.7749 43.6992 34.5401 43.6992V45.9345ZM20.0811 45.9345V43.6992C18.8463 43.6992 17.8359 44.7051 17.8359 45.9345H20.0811ZM20.0811 60.3296H17.8359C17.8359 61.559 18.8463 62.5648 20.0811 62.5648V60.3296ZM34.5401 60.3296V62.5648C35.7749 62.5648 36.7853 61.559 36.7853 60.3296H34.5401Z" fill="#0076FE"/>
</svg>
