<svg width="59" height="60" viewBox="0 0 59 60" fill="none" xmlns="http://www.w3.org/2000/svg">
<path d="M3.23189 47.7512V19.9488H0V47.7512H3.23189ZM12.2489 56.7681C7.26367 56.7681 3.23189 52.7364 3.23189 47.7512H0C0 54.5139 5.48613 60 12.2489 60V56.7681ZM46.6442 56.7681H12.2489V60H46.6442V56.7681ZM55.6612 47.7512C55.6612 52.7364 51.6294 56.7681 46.6442 56.7681V60C53.4069 60 58.8931 54.5139 58.8931 47.7512H55.6612ZM55.6612 12.2489V47.7512H58.8931V12.2489H55.6612ZM46.6442 3.23189C51.6294 3.23189 55.6612 7.26367 55.6612 12.2489H58.8931C58.8931 5.48613 53.4069 0 46.6442 0V3.23189ZM20.2155 3.23189H46.6442V0H20.2155V3.23189ZM3.23189 19.9488C3.23189 19.0601 2.50471 18.3329 1.61594 18.3329C0.727175 18.3329 0 19.0601 0 19.9488H3.23189ZM20.2155 0C19.3267 0 18.5995 0.727175 18.5995 1.61594C18.5995 2.50471 19.3267 3.23189 20.2155 3.23189V0Z" fill="#002033"/>
<path d="M12.2489 0C5.48613 0 0 5.48613 0 12.2489H3.23189C3.23189 7.26367 7.26367 3.23189 12.2489 3.23189V0ZM0 12.2489C0 13.1376 0.727175 13.8648 1.61594 13.8648C2.50471 13.8648 3.23189 13.1376 3.23189 12.2489H0ZM12.2489 3.23189C13.1376 3.23189 13.8648 2.50471 13.8648 1.61594C13.8648 0.727175 13.1376 0 12.2489 0V3.23189Z" fill="#002033"/>
<path d="M20.7139 15.7722V47.3397H23.9458V15.7722H20.7139ZM20.7139 47.3397C20.7139 48.2284 21.441 48.9556 22.3298 48.9556C23.2186 48.9556 23.9458 48.2284 23.9458 47.3397H20.7139ZM23.9458 15.7722C23.9458 14.8834 23.2186 14.1562 22.3298 14.1562C21.441 14.1562 20.7139 14.8834 20.7139 15.7722H23.9458Z" fill="#002033"/>
<path d="M17.1833 41.5053H34.0376V38.2734H17.1833V41.5053ZM34.0376 41.5053C34.9264 41.5053 35.6536 40.7782 35.6536 39.8894C35.6536 39.0006 34.9264 38.2734 34.0376 38.2734V41.5053ZM17.1833 38.2734C16.2946 38.2734 15.5674 39.0006 15.5674 39.8894C15.5674 40.7782 16.2946 41.5053 17.1833 41.5053V38.2734Z" fill="#002033"/>
<path d="M37.8614 22.9631C37.8614 26.0415 35.3647 28.5381 32.2864 28.5381V31.77C37.1423 31.77 41.0933 27.819 41.0933 22.9631H37.8614ZM32.2864 17.3881C35.3647 17.3881 37.8614 19.8848 37.8614 22.9631H41.0933C41.0933 18.1072 37.1584 14.1562 32.2864 14.1562V17.3881ZM32.2864 28.5381C31.3976 28.5381 30.6704 29.2653 30.6704 30.1541C30.6704 31.0429 31.3976 31.77 32.2864 31.77V28.5381ZM32.2864 14.1562C31.3976 14.1562 30.6704 14.8834 30.6704 15.7722C30.6704 16.661 31.3976 17.3881 32.2864 17.3881V14.1562Z" fill="#002033"/>
<path d="M32.2759 14.1562H22.3298V17.3881H32.2759V14.1562ZM22.3298 14.1562C21.441 14.1562 20.7139 14.8834 20.7139 15.7722C20.7139 16.661 21.441 17.3881 22.3298 17.3881V14.1562ZM32.2759 17.3881C33.1647 17.3881 33.8919 16.661 33.8919 15.7722C33.8919 14.8834 33.1647 14.1562 32.2759 14.1562V17.3881Z" fill="#002033"/>
<path d="M32.2759 28.5469H22.3298V31.7788H32.2759V28.5469ZM22.3298 28.5469C21.441 28.5469 20.7139 29.274 20.7139 30.1628C20.7139 31.0516 21.441 31.7788 22.3298 31.7788V28.5469ZM32.2759 31.7788C33.1647 31.7788 33.8919 31.0516 33.8919 30.1628C33.8919 29.274 33.1647 28.5469 32.2759 28.5469V31.7788Z" fill="#002033"/>
</svg>
