<svg width="55" height="72" viewBox="0 0 55 72" fill="none" xmlns="http://www.w3.org/2000/svg">
<path d="M37.2089 53.6457L38.3038 53.7822L38.6839 50.773L37.5891 50.6365L37.2089 53.6457ZM27.5835 55.5558C31.2482 55.5558 34.7684 54.8433 37.9692 53.5472L36.8288 50.7351C33.9777 51.8872 30.8528 52.5163 27.5835 52.5163V55.5482V55.5558ZM17.1979 53.5472C20.4063 54.8358 23.9189 55.5558 27.5835 55.5558V52.5239C24.3143 52.5239 21.197 51.8872 18.3383 50.7427L17.1979 53.5547V53.5472ZM16.5744 53.6609H17.7681V50.6289H16.5744V53.6609ZM6.84261 65.0837L17.6997 53.1606L15.4492 51.1216L4.59212 63.0447L6.84261 65.0837ZM11.3284 67.9716L6.84261 63.0447L4.59212 65.0837L9.07787 70.0106L11.3284 67.9716ZM27.4695 59.2169C20.1554 59.2169 13.6017 62.6278 9.03987 68.0095L11.3664 69.9651C15.4112 65.1898 21.1438 62.2488 27.4695 62.2488V59.2169ZM45.8991 68.0095C41.3373 62.6278 34.7836 59.2169 27.4695 59.2169V62.2488C33.7952 62.2488 39.5278 65.1898 43.5726 69.9651L45.8991 68.0095ZM48.0964 63.0447L43.6106 67.9716L45.8611 70.0106L50.3469 65.0837L48.0964 63.0447ZM37.3686 53.3046L48.0964 65.0837L50.3469 63.0447L39.6191 51.2657L37.3686 53.3046ZM38.4938 52.2813H40.0144V50.9397L38.6839 50.773L38.4938 52.2737V52.2813ZM37.399 52.1449L37.5891 50.6441L37.1937 50.5986L36.8288 50.7502L37.399 52.1525V52.1449ZM17.7681 52.1449L18.3383 50.7427L18.0646 50.6289H17.7681V52.1449ZM16.5744 52.1449V50.6289H15.8978L15.4416 51.1292L16.5668 52.1449H16.5744ZM5.71735 64.068L4.59212 63.0523L3.66455 64.068L4.59212 65.0837L5.71735 64.068ZM10.2031 68.9949L9.07787 70.0106L10.2411 71.2915L11.3588 69.9727L10.1955 68.9949H10.2031ZM44.7359 68.9949L43.5726 69.9727L44.6903 71.2915L45.8535 70.0106L44.7283 68.9949H44.7359ZM49.2216 64.068L50.3469 65.0837L51.2744 64.068L50.3469 63.0523L49.2216 64.068ZM38.4938 52.2889H36.9732V52.8726L37.3686 53.3046L38.4938 52.2889Z" fill="#002033"/>
<path d="M3.04119 28.1252C3.04119 14.6558 13.9895 3.74091 27.5 3.74091V0.708984C12.3168 0.708984 0 12.9883 0 28.1252H3.04119ZM27.5 52.5095C13.9895 52.5095 3.04119 41.5945 3.04119 28.1252H0C0 43.2621 12.3168 55.5414 27.5 55.5414V52.5095ZM51.9588 28.1252C51.9588 41.5945 41.0105 52.5095 27.5 52.5095V55.5414C42.6832 55.5414 55 43.2621 55 28.1252H51.9588ZM27.5 3.74091C41.0105 3.74091 51.9588 14.6558 51.9588 28.1252H55C55 12.9883 42.6832 0.708984 27.5 0.708984V3.74091Z" fill="#002033"/>
<path d="M27.4998 15.0056C34.7683 15.0056 40.6606 20.8799 40.6606 28.1262H43.7018C43.7018 19.2048 36.4485 11.9736 27.4998 11.9736V15.0056ZM14.339 28.1262C14.339 20.8799 20.2314 15.0056 27.4998 15.0056V11.9736C18.5511 11.9736 11.2979 19.2048 11.2979 28.1262H14.339ZM27.4998 41.2469C20.2314 41.2469 14.339 35.3725 14.339 28.1262H11.2979C11.2979 37.0477 18.5511 44.2788 27.4998 44.2788V41.2469ZM40.6606 28.1262C40.6606 35.3725 34.7683 41.2469 27.4998 41.2469V44.2788C36.4485 44.2788 43.7018 37.0477 43.7018 28.1262H40.6606Z" fill="#002033"/>
<path d="M22.3986 28.1245C22.3986 25.2291 24.7479 22.8869 27.6523 22.8869V19.855C23.0753 19.855 19.3574 23.5615 19.3574 28.1245H22.3986ZM27.6523 22.8869C28.4886 22.8869 29.1729 22.2047 29.1729 21.3709C29.1729 20.5372 28.4886 19.855 27.6523 19.855V22.8869ZM19.3574 28.1245C19.3574 28.9583 20.0417 29.6405 20.878 29.6405C21.7143 29.6405 22.3986 28.9583 22.3986 28.1245H19.3574Z" fill="#002033"/>
</svg>
