<svg width="60" height="60" viewBox="0 0 60 60" fill="none" xmlns="http://www.w3.org/2000/svg">
<path d="M29.5751 52.7823C31.0259 52.7823 32.202 51.6114 32.202 50.167C32.202 48.7226 31.0259 47.5518 29.5751 47.5518C28.1243 47.5518 26.9482 48.7226 26.9482 50.167C26.9482 51.6114 28.1243 52.7823 29.5751 52.7823Z" fill="#002033"/>
<path d="M9.63955 32.6245C11.0903 32.6245 12.2664 31.4537 12.2664 30.0093C12.2664 28.5649 11.0903 27.394 9.63955 27.394C8.18878 27.394 7.0127 28.5649 7.0127 30.0093C7.0127 31.4537 8.18878 32.6245 9.63955 32.6245Z" fill="#002033"/>
<path d="M50.3832 32.6245C51.834 32.6245 53.0101 31.4537 53.0101 30.0093C53.0101 28.5649 51.834 27.394 50.3832 27.394C48.9324 27.394 47.7563 28.5649 47.7563 30.0093C47.7563 31.4537 48.9324 32.6245 50.3832 32.6245Z" fill="#002033"/>
<path d="M29.5518 11.3575C31.0025 11.3575 32.1786 10.1866 32.1786 8.74223C32.1786 7.29786 31.0025 6.12695 29.5518 6.12695C28.101 6.12695 26.9248 7.29786 26.9248 8.74223C26.9248 10.1866 28.101 11.3575 29.5518 11.3575Z" fill="#002033"/>
<path d="M3.36777 47.7117V19.9749H0V47.7117H3.36777ZM12.3429 56.6471C7.38387 56.6471 3.36777 52.6488 3.36777 47.7117H0C0 54.4929 5.53159 60 12.3429 60V56.6471ZM46.8121 56.6471H12.3429V60H46.8121V56.6471ZM55.7872 47.7117C55.7872 52.6488 51.7712 56.6471 46.8121 56.6471V60C53.6234 60 59.1549 54.4929 59.1549 47.7117H55.7872ZM55.7872 12.2884V47.7117H59.1549V12.2884H55.7872ZM46.8121 3.35289C51.7712 3.35289 55.7872 7.35122 55.7872 12.2884H59.1549C59.1549 5.50713 53.6234 0 46.8121 0V3.35289ZM20.3245 3.35289H46.8121V0H20.3245V3.35289ZM3.36777 19.9749C3.36777 19.0528 2.61002 18.2984 1.68389 18.2984C0.757749 18.2984 0 19.0528 0 19.9749H3.36777ZM20.3245 0C19.3984 0 18.6406 0.754401 18.6406 1.67645C18.6406 2.59849 19.3984 3.35289 20.3245 3.35289V0Z" fill="#002033"/>
<path d="M12.3429 0C5.5316 0 0 5.50713 0 12.2884H3.36777C3.36777 7.35122 7.38387 3.35289 12.3429 3.35289V0ZM0 12.2884C0 13.2104 0.757749 13.9648 1.68389 13.9648C2.61002 13.9648 3.36777 13.2104 3.36777 12.2884H0ZM12.3429 3.35289C13.2691 3.35289 14.0268 2.59849 14.0268 1.67645C14.0268 0.754401 13.2691 0 12.3429 0V3.35289Z" fill="#002033"/>
<path d="M29.5794 31.6769H36.6939V28.324H29.5794V31.6769ZM27.8955 16.153V30.0004H31.2633V16.153H27.8955ZM36.6939 31.6769C37.62 31.6769 38.3778 30.9225 38.3778 30.0004C38.3778 29.0784 37.62 28.324 36.6939 28.324V31.6769ZM29.5794 30.0004H27.8955C27.8955 30.9225 28.6533 31.6769 29.5794 31.6769V30.0004ZM31.2633 16.153C31.2633 15.231 30.5055 14.4766 29.5794 14.4766C28.6533 14.4766 27.8955 15.231 27.8955 16.153H31.2633Z" fill="#002033"/>
</svg>
