<svg width="60" height="60" viewBox="0 0 60 60" fill="none" xmlns="http://www.w3.org/2000/svg">
<path d="M3.41588 47.7117V19.9749H0V47.7117H3.41588ZM12.5192 56.6471C7.48933 56.6471 3.41588 52.6488 3.41588 47.7117H0C0 54.4929 5.61059 60 12.5192 60V56.6471ZM47.4808 56.6471H12.5192V60H47.4808V56.6471ZM56.5841 47.7117C56.5841 52.6488 52.5107 56.6471 47.4808 56.6471V60C54.3894 60 60 54.4929 60 47.7117H56.5841ZM56.5841 12.2884V47.7117H60V12.2884H56.5841ZM47.4808 3.35289C52.5107 3.35289 56.5841 7.35122 56.5841 12.2884H60C60 5.50713 54.3894 0 47.4808 0V3.35289ZM20.6149 3.35289H47.4808V0H20.6149V3.35289ZM3.41588 19.9749C3.41588 19.0528 2.64731 18.2984 1.70794 18.2984C0.768574 18.2984 0 19.0528 0 19.9749H3.41588ZM20.6149 0C19.6755 0 18.9069 0.754401 18.9069 1.67645C18.9069 2.59849 19.6755 3.35289 20.6149 3.35289V0Z" fill="#002033"/>
<path d="M12.5192 0C5.61059 0 0 5.50713 0 12.2884H3.41588C3.41588 7.35122 7.48933 3.35289 12.5192 3.35289V0ZM0 12.2884C0 13.2104 0.768574 13.9648 1.70794 13.9648C2.64731 13.9648 3.41588 13.2104 3.41588 12.2884H0ZM12.5192 3.35289C13.4586 3.35289 14.2272 2.59849 14.2272 1.67645C14.2272 0.754401 13.4586 0 12.5192 0V3.35289Z" fill="#002033"/>
<path d="M16.9432 25.5489V14.7526H13.5273V25.5489H16.9432ZM26.2344 23.8725H15.2353V27.2254H26.2344V23.8725ZM24.5265 14.7526V25.5489H27.9423V14.7526H24.5265ZM15.2353 16.4291H26.2344V13.0762H15.2353V16.4291ZM15.2353 25.5489H13.5273C13.5273 26.471 14.2959 27.2254 15.2353 27.2254V25.5489ZM26.2344 25.5489V27.2254C27.1738 27.2254 27.9423 26.471 27.9423 25.5489H26.2344ZM26.2344 14.7526H27.9423C27.9423 13.8306 27.1738 13.0762 26.2344 13.0762V14.7526ZM15.2353 14.7526V13.0762C14.2959 13.0762 13.5273 13.8306 13.5273 14.7526H15.2353Z" fill="#002033"/>
<path d="M35.4916 25.5489V14.7526H32.0757V25.5489H35.4916ZM44.7827 23.8725H33.7836V27.2254H44.7827V23.8725ZM43.0748 14.7526V25.5489H46.4907V14.7526H43.0748ZM33.7836 16.4291H44.7827V13.0762H33.7836V16.4291ZM33.7836 25.5489H32.0757C32.0757 26.471 32.8443 27.2254 33.7836 27.2254V25.5489ZM44.7827 25.5489V27.2254C45.7221 27.2254 46.4907 26.471 46.4907 25.5489H44.7827ZM44.7827 14.7526H46.4907C46.4907 13.8306 45.7221 13.0762 44.7827 13.0762V14.7526ZM33.7836 14.7526V13.0762C32.8443 13.0762 32.0757 13.8306 32.0757 14.7526H33.7836Z" fill="#002033"/>
<path d="M43.0665 34.4509V45.2472H46.4824V34.4509H43.0665ZM33.7753 36.1273H44.7745V32.7744H33.7753V36.1273ZM35.4833 45.2472V34.4509H32.0674V45.2472H35.4833ZM44.7745 43.5707H33.7753V46.9236H44.7745V43.5707ZM44.7745 34.4509H46.4824C46.4824 33.5288 45.7138 32.7744 44.7745 32.7744V34.4509ZM33.7753 34.4509V32.7744C32.836 32.7744 32.0674 33.5288 32.0674 34.4509H33.7753ZM33.7753 45.2472H32.0674C32.0674 46.1692 32.836 46.9236 33.7753 46.9236V45.2472ZM44.7745 45.2472V46.9236C45.7138 46.9236 46.4824 46.1692 46.4824 45.2472H44.7745Z" fill="#002033"/>
<path d="M24.5177 34.4509V45.2472H27.9336V34.4509H24.5177ZM15.2265 36.1273H26.2256V32.7744H15.2265V36.1273ZM16.9344 45.2472V34.4509H13.5186V45.2472H16.9344ZM26.2256 43.5707H15.2265V46.9236H26.2256V43.5707ZM26.2256 34.4509H27.9336C27.9336 33.5288 27.165 32.7744 26.2256 32.7744V34.4509ZM15.2265 34.4509V32.7744C14.2871 32.7744 13.5186 33.5288 13.5186 34.4509H15.2265ZM15.2265 45.2472H13.5186C13.5186 46.1692 14.2871 46.9236 15.2265 46.9236V45.2472ZM26.2256 45.2472V46.9236C27.165 46.9236 27.9336 46.1692 27.9336 45.2472H26.2256Z" fill="#002033"/>
</svg>
