<svg width="59" height="60" viewBox="0 0 59 60" fill="none" xmlns="http://www.w3.org/2000/svg">
<path d="M3.35289 47.7117V19.9749H0V47.7117H3.35289ZM12.2883 56.6471C7.35119 56.6471 3.35289 52.6488 3.35289 47.7117H0C0 54.4929 5.5071 60 12.2883 60V56.6471ZM46.6052 56.6471H12.2883V60H46.6052V56.6471ZM55.5407 47.7117C55.5407 52.6488 51.5423 56.6471 46.6052 56.6471V60C53.3864 60 58.8936 54.4929 58.8936 47.7117H55.5407ZM55.5407 12.2884V47.7117H58.8936V12.2884H55.5407ZM46.6052 3.35289C51.5423 3.35289 55.5407 7.35122 55.5407 12.2884H58.8936C58.8936 5.50713 53.3864 0 46.6052 0V3.35289ZM20.2347 3.35289H46.6052V0H20.2347V3.35289ZM3.35289 19.9749C3.35289 19.0528 2.59849 18.2984 1.67645 18.2984C0.754401 18.2984 0 19.0528 0 19.9749H3.35289ZM20.2347 0C19.3127 0 18.5583 0.754401 18.5583 1.67645C18.5583 2.59849 19.3127 3.35289 20.2347 3.35289V0Z" fill="#002033"/>
<path d="M12.2883 0C5.5071 0 0 5.50713 0 12.2884H3.35289C3.35289 7.35122 7.35119 3.35289 12.2883 3.35289V0ZM0 12.2884C0 13.2104 0.754401 13.9648 1.67645 13.9648C2.59849 13.9648 3.35289 13.2104 3.35289 12.2884H0ZM12.2883 3.35289C13.2104 3.35289 13.9648 2.59849 13.9648 1.67645C13.9648 0.754401 13.2104 0 12.2883 0V3.35289Z" fill="#002033"/>
<path d="M29.4467 14.8705C37.8038 14.8705 44.5766 21.6433 44.5766 30.0004H47.9295C47.9295 19.7908 39.6562 11.5176 29.4467 11.5176V14.8705ZM14.3168 30.0004C14.3168 21.6433 21.0896 14.8705 29.4467 14.8705V11.5176C19.2371 11.5176 10.9639 19.7908 10.9639 30.0004H14.3168ZM29.4467 45.1303C21.0896 45.1303 14.3168 38.3575 14.3168 30.0004H10.9639C10.9639 40.2099 19.2371 48.4832 29.4467 48.4832V45.1303ZM44.5766 30.0004C44.5766 38.3575 37.8038 45.1303 29.4467 45.1303V48.4832C39.6562 48.4832 47.9295 40.2099 47.9295 30.0004H44.5766Z" fill="#002033"/>
<path d="M29.4467 25.6673C31.8356 25.6673 33.7719 27.6036 33.7719 29.9926H37.1248C37.1248 25.7512 33.6881 22.3145 29.4467 22.3145V25.6673ZM25.1214 29.9926C25.1214 27.6036 27.0578 25.6673 29.4467 25.6673V22.3145C25.2053 22.3145 21.7686 25.7512 21.7686 29.9926H25.1214ZM29.4467 34.3178C27.0578 34.3178 25.1214 32.3815 25.1214 29.9926H21.7686C21.7686 34.234 25.2053 37.6707 29.4467 37.6707V34.3178ZM33.7719 29.9926C33.7719 32.3815 31.8356 34.3178 29.4467 34.3178V37.6707C33.6881 37.6707 37.1248 34.234 37.1248 29.9926H33.7719Z" fill="#002033"/>
</svg>
