<svg width="21" height="27" viewBox="0 0 21 27" fill="none" xmlns="http://www.w3.org/2000/svg">
<path d="M14.1841 20.2501L14.6016 20.3023L14.7466 19.1512L14.3291 19.099L14.1841 20.2501ZM10.5134 20.9807C11.9109 20.9807 13.2534 20.7082 14.4741 20.2124L14.0391 19.1367C12.9518 19.5774 11.7602 19.818 10.5134 19.818V20.9778V20.9807ZM6.55268 20.2124C7.77626 20.7053 9.11582 20.9807 10.5134 20.9807V19.8209C9.2666 19.8209 8.07781 19.5774 6.9876 19.1396L6.55268 20.2153V20.2124ZM6.31492 20.2559H6.77014V19.0961H6.31492V20.2559ZM2.60359 24.6254L6.74405 20.0645L5.8858 19.2845L1.74534 23.8454L2.60359 24.6254ZM4.31428 25.7301L2.60359 23.8454L1.74534 24.6254L3.45603 26.51L4.31428 25.7301ZM10.4699 22.3812C7.68058 22.3812 5.18123 23.6859 3.44154 25.7446L4.32878 26.4926C5.8713 24.666 8.05751 23.541 10.4699 23.541V22.3812ZM17.4982 25.7446C15.7585 23.6859 13.2592 22.3812 10.4699 22.3812V23.541C12.8822 23.541 15.0685 24.666 16.611 26.4926L17.4982 25.7446ZM18.3362 23.8454L16.6255 25.7301L17.4837 26.51L19.1944 24.6254L18.3362 23.8454ZM14.245 20.1196L18.3362 24.6254L19.1944 23.8454L15.1033 19.3396L14.245 20.1196ZM14.6741 19.7281H15.254V19.215L14.7466 19.1512L14.6741 19.7252V19.7281ZM14.2566 19.676L14.3291 19.1019L14.1783 19.0845L14.0391 19.1425L14.2566 19.6789V19.676ZM6.77014 19.676L6.9876 19.1396L6.88322 19.0961H6.77014V19.676ZM6.31492 19.676V19.0961H6.05687L5.8829 19.2874L6.31202 19.676H6.31492ZM2.17446 24.2369L1.74534 23.8483L1.3916 24.2369L1.74534 24.6254L2.17446 24.2369ZM3.88516 26.1215L3.45603 26.51L3.89966 27.0001L4.32588 26.4956L3.88226 26.1215H3.88516ZM17.0546 26.1215L16.611 26.4956L17.0372 27.0001L17.4808 26.51L17.0517 26.1215H17.0546ZM18.7653 24.2369L19.1944 24.6254L19.5482 24.2369L19.1944 23.8483L18.7653 24.2369ZM14.6741 19.7311H14.0942V19.9543L14.245 20.1196L14.6741 19.7311Z" fill="white"/>
<path d="M1.15979 10.4874C1.15979 5.33504 5.33505 1.15979 10.4874 1.15979V0C4.69716 0 0 4.69716 0 10.4874H1.15979ZM10.4874 19.8151C5.33505 19.8151 1.15979 15.6398 1.15979 10.4874H0C0 16.2777 4.69716 20.9749 10.4874 20.9749V19.8151ZM19.8151 10.4874C19.8151 15.6398 15.6398 19.8151 10.4874 19.8151V20.9749C16.2777 20.9749 20.9749 16.2777 20.9749 10.4874H19.8151ZM10.4874 1.15979C15.6398 1.15979 19.8151 5.33504 19.8151 10.4874H20.9749C20.9749 4.69716 16.2777 0 10.4874 0V1.15979Z" fill="white"/>
<path d="M10.4908 5.46839C13.2627 5.46839 15.5098 7.71548 15.5098 10.4874H16.6696C16.6696 7.0747 13.9035 4.30859 10.4908 4.30859V5.46839ZM5.4718 10.4874C5.4718 7.71548 7.7189 5.46839 10.4908 5.46839V4.30859C7.07812 4.30859 4.31201 7.0747 4.31201 10.4874H5.4718ZM10.4908 15.5064C7.7189 15.5064 5.4718 13.2593 5.4718 10.4874H4.31201C4.31201 13.9001 7.07812 16.6662 10.4908 16.6662V15.5064ZM15.5098 10.4874C15.5098 13.2593 13.2627 15.5064 10.4908 15.5064V16.6662C13.9035 16.6662 16.6696 13.9001 16.6696 10.4874H15.5098Z" fill="white"/>
<path d="M8.54261 10.4875C8.54261 9.37994 9.43855 8.48401 10.5461 8.48401V7.32422C8.80066 7.32422 7.38281 8.74206 7.38281 10.4875H8.54261ZM10.5461 8.48401C10.8651 8.48401 11.126 8.22306 11.126 7.90412C11.126 7.58517 10.8651 7.32422 10.5461 7.32422V8.48401ZM7.38281 10.4875C7.38281 10.8065 7.64377 11.0674 7.96271 11.0674C8.28165 11.0674 8.54261 10.8065 8.54261 10.4875H7.38281Z" fill="white"/>
</svg>
