<svg width="54" height="60" viewBox="0 0 54 60" fill="none" xmlns="http://www.w3.org/2000/svg">
<path d="M27.9665 8.41542L26.0323 6.47736H26.0255L27.9596 8.41542H27.9665ZM46.0913 13.9772C41.2047 9.09786 34.4592 6.08154 27.0028 6.08154V8.81123C33.7074 8.81123 39.7695 11.5136 44.1641 15.9016L46.0982 13.9704L46.0913 13.9772ZM53.9988 33.0373C53.9988 25.592 50.9711 18.8497 46.0913 13.9772L44.1572 15.9085C48.5449 20.2896 51.2582 26.3495 51.2582 33.0441H53.9919L53.9988 33.0373ZM46.0913 52.0974C50.978 47.218 53.9988 40.4825 53.9988 33.0373H51.265C51.265 39.7318 48.5586 45.7849 44.1641 50.1729L46.0982 52.1042L46.0913 52.0974ZM27.0028 59.993C34.4592 59.993 41.2047 56.9699 46.0913 52.1042L44.1572 50.1729C39.7627 54.5541 33.7005 57.2701 26.996 57.2701V59.9998L27.0028 59.993ZM7.91427 52.0974C12.8009 56.9767 19.5465 59.993 27.0028 59.993V57.2633C20.2982 57.2633 14.2361 54.5609 9.84159 50.1729L7.90743 52.1042L7.91427 52.0974ZM0.0068411 33.0373C0.0068411 40.4825 3.03449 47.218 7.90743 52.0974L9.84159 50.1661C5.45389 45.7781 2.73377 39.725 2.73377 33.0304H0L0.0068411 33.0373ZM27.0097 6.07471C12.0969 6.07471 0.0068411 18.1468 0.0068411 33.0373H2.74061C2.74061 19.6481 13.6005 8.8044 27.0097 8.8044V6.07471ZM27.0028 7.44639L26.0392 6.48419L23.7086 8.81123H27.0097V7.44639H27.0028ZM8.87795 51.1352L7.90743 52.0974L8.87111 51.1352H8.87795ZM27.0097 7.43955L27.9733 8.4018L30.3038 6.07471H27.0028V7.43955H27.0097Z" fill="#0076FE"/>
<path d="M42.8587 33.0349C42.8587 24.293 35.7577 17.2026 27.0028 17.2026V19.9323C34.2542 19.9323 40.1249 25.7944 40.1249 33.0349H42.8587ZM27.0028 48.8671C35.7577 48.8671 42.8587 41.7767 42.8587 33.0349H40.1249C40.1249 40.2754 34.2542 46.1374 27.0028 46.1374V48.8671ZM11.147 33.0349C11.147 41.7767 18.2479 48.8671 27.0028 48.8671V46.1374C19.7515 46.1374 13.8807 40.2754 13.8807 33.0349H11.147ZM27.0028 17.2026C18.2479 17.2026 11.147 24.293 11.147 33.0349H13.8807C13.8807 25.7944 19.7515 19.9323 27.0028 19.9323V17.2026Z" fill="#0076FE"/>
<path d="M32.4279 0H21.2604V2.7297H32.4279V0ZM21.2604 0C20.5087 0 19.8936 0.614181 19.8936 1.36485C19.8936 2.11551 20.5087 2.7297 21.2604 2.7297V0ZM32.4279 2.7297C33.1796 2.7297 33.7947 2.11551 33.7947 1.36485C33.7947 0.614181 33.1796 0 32.4279 0V2.7297Z" fill="#0076FE"/>
<path d="M28.4502 32.0873L22.928 26.3482L20.9597 28.2385L26.4818 33.9777L28.4502 32.0873ZM22.928 26.3482C22.4017 25.8022 21.5406 25.7886 20.9938 26.3072C20.4471 26.8327 20.4334 27.6925 20.9528 28.2385L22.9211 26.3482H22.928ZM26.4818 33.9777C27.0081 34.5236 27.8692 34.5373 28.416 34.0186C28.9627 33.4931 28.9764 32.6333 28.457 32.0873L26.4887 33.9777H26.4818Z" fill="#FC0C35"/>
</svg>
