<svg width="46" height="60" viewBox="0 0 46 60" fill="none" xmlns="http://www.w3.org/2000/svg">
<path d="M44.2767 0H15.1978V2.66667H44.2767V0ZM45.6 58.6667V1.33333H42.9535V58.6667H45.6ZM1.32327 60H44.2767V57.3333H1.32327V60ZM0 15.5133V58.6667H2.64655V15.5133H0ZM15.1978 0C14.47 0 13.8745 0.6 13.8745 1.33333C13.8745 2.06667 14.47 2.66667 15.1978 2.66667V0ZM44.2767 1.33333H45.6C45.6 0.6 45.0045 0 44.2767 0V1.33333ZM44.2767 58.6667V60C45.0045 60 45.6 59.4 45.6 58.6667H44.2767ZM1.32327 58.6667H0C0 59.4 0.595473 60 1.32327 60V58.6667ZM2.64655 15.5133C2.64655 14.78 2.05107 14.18 1.32327 14.18C0.595473 14.18 0 14.78 0 15.5133H2.64655Z" fill="#0076FE"/>
<path d="M31.3401 17.625H15.4278V20.2917H31.3401V17.625ZM15.4278 17.625C14.7 17.625 14.1045 18.225 14.1045 18.9583C14.1045 19.6917 14.7 20.2917 15.4278 20.2917V17.625ZM31.3401 20.2917C32.0679 20.2917 32.6634 19.6917 32.6634 18.9583C32.6634 18.225 32.0679 17.625 31.3401 17.625V20.2917Z" fill="#0076FE"/>
<path d="M31.3401 28.6689H15.4278V31.3356H31.3401V28.6689ZM15.4278 28.6689C14.7 28.6689 14.1045 29.2689 14.1045 30.0023C14.1045 30.7356 14.7 31.3356 15.4278 31.3356V28.6689ZM31.3401 31.3356C32.0679 31.3356 32.6634 30.7356 32.6634 30.0023C32.6634 29.2689 32.0679 28.6689 31.3401 28.6689V31.3356Z" fill="#0076FE"/>
<path d="M31.3401 39.708H15.4278V42.3747H31.3401V39.708ZM15.4278 39.708C14.7 39.708 14.1045 40.308 14.1045 41.0413C14.1045 41.7747 14.7 42.3747 15.4278 42.3747V39.708ZM31.3401 42.3747C32.0679 42.3747 32.6634 41.7747 32.6634 41.0413C32.6634 40.308 32.0679 39.708 31.3401 39.708V42.3747Z" fill="#0076FE"/>
<path d="M10.0304 0C4.49251 0 0 4.52667 0 10.1067H2.64655C2.64655 5.99334 5.94811 2.66667 10.0304 2.66667V0ZM0 10.1067C0 10.84 0.595473 11.44 1.32327 11.44C2.05107 11.44 2.64655 10.84 2.64655 10.1067H0ZM10.0304 2.66667C10.7582 2.66667 11.3537 2.06667 11.3537 1.33333C11.3537 0.6 10.7582 0 10.0304 0V2.66667Z" fill="#FC0C35"/>
</svg>
