<svg width="118" height="116" viewBox="0 0 118 116" fill="none" xmlns="http://www.w3.org/2000/svg">
<path d="M64.6032 5.81762L69.4032 1.00075H69.4202L64.6202 5.81762H64.6032ZM19.6226 19.6409C31.7498 7.51377 48.4903 0.0169776 66.9948 0.0169776V6.80139C50.356 6.80139 35.3115 13.518 24.4055 24.4239L19.6056 19.6239L19.6226 19.6409ZM-0.00131226 67.0131C-0.00131226 48.5086 7.51244 31.7511 19.6226 19.6409L24.4225 24.4409C13.5335 35.3299 6.80007 50.3913 6.80007 67.03H0.0156708L-0.00131226 67.0131ZM19.6226 114.385C7.49548 102.258 -0.00131226 85.5175 -0.00131226 67.0131H6.7831C6.7831 83.6518 13.4996 98.6962 24.4055 109.602L19.6056 114.402L19.6226 114.385ZM66.9948 134.009C48.4903 134.009 31.7498 126.495 19.6226 114.402L24.4225 109.602C35.3285 120.491 50.373 127.242 67.0117 127.242V134.026L66.9948 134.009ZM114.367 114.385C102.24 126.512 85.4992 134.009 66.9948 134.009V127.225C83.6335 127.225 98.6779 120.508 109.584 109.602L114.384 114.402L114.367 114.385ZM133.991 67.0131C133.991 85.5175 126.477 102.258 114.384 114.385L109.584 109.585C120.473 98.6793 127.223 83.6349 127.223 66.9961H134.008L133.991 67.0131ZM66.9778 0C103.987 0 133.991 30.0041 133.991 67.0131H127.206C127.206 33.7355 100.255 6.78441 66.9778 6.78441V0ZM66.9948 3.40918L69.3862 1.01772L75.17 6.80139H66.9778V3.40918H66.9948ZM111.975 111.994L114.384 114.385L111.992 111.994H111.975ZM66.9778 3.39221L64.5862 5.78377L58.8026 0H66.9948V3.39221H66.9778Z" fill="#0076FE"/>
<path d="M27.6445 67.0132C27.6445 45.2861 45.2671 27.6636 66.9941 27.6636V34.448C48.9985 34.448 34.4289 49.0175 34.4289 67.0132H27.6445ZM66.9941 106.363C45.2671 106.363 27.6445 88.7403 27.6445 67.0132H34.4289C34.4289 85.0088 48.9985 99.5784 66.9941 99.5784V106.363ZM106.344 67.0132C106.344 88.7403 88.7212 106.363 66.9941 106.363V99.5784C84.9898 99.5784 99.5593 85.0088 99.5593 67.0132H106.344ZM66.9941 27.6636C88.7212 27.6636 106.344 45.2861 106.344 67.0132H99.5593C99.5593 49.0175 84.9898 34.448 66.9941 34.448V27.6636Z" fill="#0076FE"/>
<path d="M47.5053 67.6431C47.5053 56.6098 56.1831 47.6609 66.882 47.6609C68.1275 48.3031 68.2845 50.0214 67.1761 50.8787L66.882 51.1061C58.0205 51.1061 50.8462 58.5047 50.8462 67.6431L50.5552 67.9431C49.6786 68.8471 48.189 68.7006 47.5053 67.6431Z" fill="#FC0C35"/>
</svg>
