<svg width="59" height="60" viewBox="0 0 59 60" fill="none" xmlns="http://www.w3.org/2000/svg">
<path d="M3.35289 47.7117V19.9749H0V47.7117H3.35289ZM12.2884 56.6471C7.35125 56.6471 3.35289 52.6488 3.35289 47.7117H0C0 54.4929 5.50715 60 12.2884 60V56.6471ZM46.6052 56.6471H12.2884V60H46.6052V56.6471ZM55.5407 47.7117C55.5407 52.6488 51.5424 56.6471 46.6052 56.6471V60C53.3865 60 58.8936 54.4929 58.8936 47.7117H55.5407ZM55.5407 12.2884V47.7117H58.8936V12.2884H55.5407ZM46.6052 3.35289C51.5424 3.35289 55.5407 7.35122 55.5407 12.2884H58.8936C58.8936 5.50713 53.3865 0 46.6052 0V3.35289ZM20.2347 3.35289H46.6052V0H20.2347V3.35289ZM3.35289 19.9749C3.35289 19.0528 2.59849 18.2984 1.67645 18.2984C0.754401 18.2984 0 19.0528 0 19.9749H3.35289ZM20.2347 0C19.3127 0 18.5583 0.754401 18.5583 1.67645C18.5583 2.59849 19.3127 3.35289 20.2347 3.35289V0Z" fill="#0076FE"/>
<path d="M12.2884 0C5.50715 0 0 5.50713 0 12.2884H3.35289C3.35289 7.35122 7.35125 3.35289 12.2884 3.35289V0ZM0 12.2884C0 13.2104 0.754401 13.9648 1.67645 13.9648C2.59849 13.9648 3.35289 13.2104 3.35289 12.2884H0ZM12.2884 3.35289C13.2104 3.35289 13.9648 2.59849 13.9648 1.67645C13.9648 0.754401 13.2104 0 12.2884 0V3.35289Z" fill="#FC0C35"/>
<path d="M23.4872 17.6201C20.0672 14.2002 14.5182 14.2002 11.0983 17.6201L13.4704 19.9923C15.5827 17.88 19.0027 17.88 21.115 19.9923L23.4872 17.6201ZM11.0983 17.6201C10.4445 18.274 10.4445 19.3385 11.0983 19.9923C11.7521 20.6461 12.8166 20.6461 13.4704 19.9923L11.0983 17.6201ZM21.115 19.9923C21.7688 20.6461 22.8334 20.6461 23.4872 19.9923C24.141 19.3385 24.141 18.274 23.4872 17.6201L21.115 19.9923Z" fill="#0076FE"/>
<path d="M45.0638 17.6201C41.6439 14.2002 36.0949 14.2002 32.6749 17.6201L35.0471 19.9923C37.1594 17.88 40.5793 17.88 42.6917 19.9923L45.0638 17.6201ZM32.6749 17.6201C32.0211 18.274 32.0211 19.3385 32.6749 19.9923C33.3287 20.6461 34.3933 20.6461 35.0471 19.9923L32.6749 17.6201ZM42.6917 19.9923C43.3455 20.6461 44.41 20.6461 45.0638 19.9923C45.7177 19.3385 45.7177 18.274 45.0638 17.6201L42.6917 19.9923Z" fill="#0076FE"/>
<path d="M31.967 49.6571C36.8035 49.6571 40.7264 45.7342 40.7264 40.8976H37.3735C37.3735 43.8901 34.9594 46.3042 31.967 46.3042V49.6571ZM40.7264 40.8976C40.7264 39.9756 39.972 39.2212 39.05 39.2212C38.1279 39.2212 37.3735 39.9756 37.3735 40.8976H40.7264ZM31.967 46.3042C31.0449 46.3042 30.2905 47.0586 30.2905 47.9806C30.2905 48.9027 31.0449 49.6571 31.967 49.6571V46.3042Z" fill="#0076FE"/>
<path d="M22.2963 34.9469L30.6702 36.9335L31.4413 33.6728L23.0675 31.6862L22.2963 34.9469ZM27.4346 23.7231L21.3156 32.3484L24.0482 34.2847L30.1673 25.6594L27.4346 23.7231ZM30.6702 36.9335C31.5671 37.1431 32.4723 36.5898 32.6903 35.6929C32.9082 34.796 32.3466 33.8908 31.4497 33.6728L30.6786 36.9335H30.6702ZM22.6819 33.3124L21.3156 32.3401C20.997 32.7927 20.9216 33.3794 21.1144 33.8991C21.3072 34.4188 21.7515 34.8128 22.2963 34.9385L22.6819 33.304V33.3124ZM30.1673 25.6594C30.7037 24.905 30.5277 23.8572 29.7733 23.3208C29.0189 22.7843 27.9711 22.9603 27.4346 23.7147L30.1673 25.651V25.6594Z" fill="#0076FE"/>
</svg>
