<svg width="60" height="60" viewBox="0 0 60 60" fill="none" xmlns="http://www.w3.org/2000/svg">
<path d="M3.41588 47.7117V19.9749H0V47.7117H3.41588ZM12.5192 56.6471C7.4893 56.6471 3.41588 52.6488 3.41588 47.7117H0C0 54.4929 5.61057 60 12.5192 60V56.6471ZM47.4808 56.6471H12.5192V60H47.4808V56.6471ZM56.5841 47.7117C56.5841 52.6488 52.5106 56.6471 47.4808 56.6471V60C54.3894 60 60 54.4929 60 47.7117H56.5841ZM56.5841 12.2884V47.7117H60V12.2884H56.5841ZM47.4808 3.35289C52.5106 3.35289 56.5841 7.35122 56.5841 12.2884H60C60 5.50713 54.3894 0 47.4808 0V3.35289ZM20.6149 3.35289H47.4808V0H20.6149V3.35289ZM3.41588 19.9749C3.41588 19.0528 2.64731 18.2984 1.70794 18.2984C0.768574 18.2984 0 19.0528 0 19.9749H3.41588ZM20.6149 0C19.6755 0 18.9069 0.754401 18.9069 1.67645C18.9069 2.59849 19.6755 3.35289 20.6149 3.35289V0Z" fill="#0076FE"/>
<path d="M12.5192 0C5.61057 0 0 5.50713 0 12.2884H3.41588C3.41588 7.35122 7.4893 3.35289 12.5192 3.35289V0ZM0 12.2884C0 13.2104 0.768574 13.9648 1.70794 13.9648C2.64731 13.9648 3.41588 13.2104 3.41588 12.2884H0ZM12.5192 3.35289C13.4586 3.35289 14.2271 2.59849 14.2271 1.67645C14.2271 0.754401 13.4586 0 12.5192 0V3.35289Z" fill="#FC0C35"/>
<path d="M30.0019 14.87C38.516 14.87 45.4161 21.6428 45.4161 29.9999H48.832C48.832 19.7903 40.4033 11.5171 30.0019 11.5171V14.87ZM14.5878 29.9999C14.5878 21.6428 21.4878 14.87 30.0019 14.87V11.5171C19.6006 11.5171 11.1719 19.7903 11.1719 29.9999H14.5878ZM30.0019 45.1298C21.4878 45.1298 14.5878 38.357 14.5878 29.9999H11.1719C11.1719 40.2095 19.6006 48.4827 30.0019 48.4827V45.1298ZM45.4161 29.9999C45.4161 38.357 38.516 45.1298 30.0019 45.1298V48.4827C40.4033 48.4827 48.832 40.2095 48.832 29.9999H45.4161Z" fill="#0076FE"/>
<path d="M29.9982 25.6666C32.432 25.6666 34.4047 27.6029 34.4047 29.9918H37.8205C37.8205 25.7504 34.3193 22.3137 29.9982 22.3137V25.6666ZM25.5917 29.9918C25.5917 27.6029 27.5644 25.6666 29.9982 25.6666V22.3137C25.6771 22.3137 22.1758 25.7504 22.1758 29.9918H25.5917ZM29.9982 34.3171C27.5644 34.3171 25.5917 32.3808 25.5917 29.9918H22.1758C22.1758 34.2333 25.6771 37.67 29.9982 37.67V34.3171ZM34.4047 29.9918C34.4047 32.3808 32.432 34.3171 29.9982 34.3171V37.67C34.3193 37.67 37.8205 34.2333 37.8205 29.9918H34.4047Z" fill="#0076FE"/>
</svg>
