<svg width="36" height="60" viewBox="0 0 36 60" fill="none" xmlns="http://www.w3.org/2000/svg">
<path d="M28.3983 0H12.112V2.72294H28.3983V0ZM36 7.54935C36 3.38325 32.5933 0 28.3983 0V2.72294C31.0853 2.72294 33.2582 4.88087 33.2582 7.54935H36ZM36 52.4506V7.54935H33.2582V52.4506H36ZM28.3983 60C32.5933 60 36 56.6167 36 52.4506H33.2582C33.2582 55.1191 31.0853 57.2771 28.3983 57.2771V60ZM7.60165 60H28.3983V57.2771H7.60165V60ZM0 52.4506C0 56.6167 3.40668 60 7.60165 60V57.2771C4.91467 57.2771 2.74181 55.1191 2.74181 52.4506H0ZM0 12.1852V52.4506H2.74181V12.1852H0ZM12.112 0C11.358 0 10.7411 0.612662 10.7411 1.36147C10.7411 2.11028 11.358 2.72294 12.112 2.72294V0ZM2.74181 12.1852C2.74181 11.4364 2.1249 10.8237 1.37091 10.8237C0.616908 10.8237 0 11.4364 0 12.1852H2.74181Z" fill="#0076FE"/>
<path d="M2.74181 7.54935C2.74181 4.88087 4.91467 2.72294 7.60165 2.72294V0C3.40668 0 0 3.38325 0 7.54935H2.74181ZM7.60165 2.72294C8.35565 2.72294 8.97256 2.11028 8.97256 1.36147C8.97256 0.612662 8.35565 0 7.60165 0V2.72294ZM0 7.54935C0 8.29816 0.616908 8.91082 1.37091 8.91082C2.1249 8.91082 2.74181 8.29816 2.74181 7.54935H0Z" fill="#FC0C35"/>
<path d="M18.0009 11.2556C19.182 11.2556 20.1395 10.3047 20.1395 9.1317C20.1395 7.95871 19.182 7.00781 18.0009 7.00781C16.8198 7.00781 15.8623 7.95871 15.8623 9.1317C15.8623 10.3047 16.8198 11.2556 18.0009 11.2556Z" fill="#0076FE"/>
<path d="M26.2447 21.5903H9.76641V24.3133H26.2447V21.5903ZM9.76641 21.5903C9.01242 21.5903 8.39551 22.203 8.39551 22.9518C8.39551 23.7006 9.01242 24.3133 9.76641 24.3133V21.5903ZM26.2447 24.3133C26.9987 24.3133 27.6156 23.7006 27.6156 22.9518C27.6156 22.203 26.9987 21.5903 26.2447 21.5903V24.3133Z" fill="#0076FE"/>
<path d="M26.2447 32.8613H9.76641V35.5843H26.2447V32.8613ZM9.76641 32.8613C9.01242 32.8613 8.39551 33.474 8.39551 34.2228C8.39551 34.9716 9.01242 35.5843 9.76641 35.5843V32.8613ZM26.2447 35.5843C26.9987 35.5843 27.6156 34.9716 27.6156 34.2228C27.6156 33.474 26.9987 32.8613 26.2447 32.8613V35.5843Z" fill="#0076FE"/>
<path d="M26.2447 44.1348H9.76641V46.8577H26.2447V44.1348ZM9.76641 44.1348C9.01242 44.1348 8.39551 44.7474 8.39551 45.4962C8.39551 46.245 9.01242 46.8577 9.76641 46.8577V44.1348ZM26.2447 46.8577C26.9987 46.8577 27.6156 46.245 27.6156 45.4962C27.6156 44.7474 26.9987 44.1348 26.2447 44.1348V46.8577Z" fill="#0076FE"/>
</svg>
