<svg width="47" height="60" viewBox="0 0 47 60" fill="none" xmlns="http://www.w3.org/2000/svg">
<path d="M31.7941 45.0004L32.7297 45.1163L33.0545 42.5583L32.1189 42.4424L31.7941 45.0004ZM23.5688 46.624C26.7004 46.624 29.7085 46.0184 32.4438 44.9166L31.4692 42.5261C29.0328 43.5055 26.3625 44.0403 23.5688 44.0403V46.6176V46.624ZM14.6937 44.9166C17.4355 46.012 20.4372 46.624 23.5688 46.624V44.0467C20.775 44.0467 18.1112 43.5055 15.6683 42.5326L14.6937 44.923V44.9166ZM14.161 45.0132H15.181V42.4359H14.161V45.0132ZM5.8447 54.7233L15.1226 44.588L13.1994 42.8547L3.92155 52.99L5.8447 54.7233ZM9.67798 57.1781L5.8447 52.99L3.92155 54.7233L7.75484 58.9114L9.67798 57.1781ZM23.4713 49.7362C17.2211 49.7362 11.6206 52.6356 7.72236 57.2104L9.71047 58.8727C13.1669 54.8135 18.0657 52.3135 23.4713 52.3135V49.7362ZM39.2203 57.2104C35.322 52.6356 29.7215 49.7362 23.4713 49.7362V52.3135C28.8769 52.3135 33.7757 54.8135 37.2322 58.8727L39.2203 57.2104ZM41.0979 52.99L37.2647 57.1781L39.1878 58.9114L43.0211 54.7233L41.0979 52.99ZM31.9305 44.7104L41.0979 54.7233L43.0211 52.99L33.8537 42.9772L31.9305 44.7104ZM32.8921 43.8405H34.1915V42.7001L33.0545 42.5583L32.8921 43.8341V43.8405ZM31.9565 43.7246L32.1189 42.4488L31.7811 42.4102L31.4692 42.539L31.9565 43.731V43.7246ZM15.181 43.7246L15.6683 42.5326L15.4344 42.4359H15.181V43.7246ZM14.161 43.7246V42.4359H13.5827L13.1929 42.8612L14.1545 43.7246H14.161ZM4.88312 53.8599L3.92155 52.9965L3.12891 53.8599L3.92155 54.7233L4.88312 53.8599ZM8.71641 58.048L7.75484 58.9114L8.7489 60.0003L9.70397 58.8792L8.70991 58.048H8.71641ZM38.2262 58.048L37.2322 58.8792L38.1872 60.0003L39.1813 58.9114L38.2197 58.048H38.2262ZM42.0595 53.8599L43.0211 54.7233L43.8137 53.8599L43.0211 52.9965L42.0595 53.8599ZM32.8921 43.847H31.5927V44.3431L31.9305 44.7104L32.8921 43.847Z" fill="#0076FE"/>
<path d="M2.59884 23.3053C2.59884 11.8556 11.9547 2.57731 23.5 2.57731V0C10.5253 0 0 10.4381 0 23.3053H2.59884ZM23.5 44.0334C11.9547 44.0334 2.59884 34.755 2.59884 23.3053H0C0 36.1726 10.5253 46.6107 23.5 46.6107V44.0334ZM44.4012 23.3053C44.4012 34.755 35.0453 44.0334 23.5 44.0334V46.6107C36.4747 46.6107 47 36.1726 47 23.3053H44.4012ZM23.5 2.57731C35.0453 2.57731 44.4012 11.8556 44.4012 23.3053H47C47 10.4381 36.4747 0 23.5 0V2.57731Z" fill="#0076FE"/>
<path d="M23.5016 12.1515C29.7128 12.1515 34.748 17.1451 34.748 23.3048H37.3469C37.3469 15.7211 31.1486 9.57422 23.5016 9.57422V12.1515ZM12.2551 23.3048C12.2551 17.1451 17.2903 12.1515 23.5016 12.1515V9.57422C15.8545 9.57422 9.65625 15.7211 9.65625 23.3048H12.2551ZM23.5016 34.4582C17.2903 34.4582 12.2551 29.4646 12.2551 23.3048H9.65625C9.65625 30.8886 15.8545 37.0355 23.5016 37.0355V34.4582ZM34.748 23.3048C34.748 29.4646 29.7128 34.4582 23.5016 34.4582V37.0355C31.1486 37.0355 37.3469 30.8886 37.3469 23.3048H34.748Z" fill="#0076FE"/>
<path d="M19.1379 23.305C19.1379 20.8437 21.1455 18.8527 23.6274 18.8527V16.2754C19.7161 16.2754 16.5391 19.4261 16.5391 23.305H19.1379ZM23.6274 18.8527C24.3421 18.8527 24.9268 18.2728 24.9268 17.564C24.9268 16.8553 24.3421 16.2754 23.6274 16.2754V18.8527ZM16.5391 23.305C16.5391 24.0138 17.1238 24.5936 17.8385 24.5936C18.5532 24.5936 19.1379 24.0138 19.1379 23.305H16.5391Z" fill="#FC0C35"/>
</svg>
