<svg width="30" height="30" viewBox="0 0 30 30" fill="none" xmlns="http://www.w3.org/2000/svg">
<path d="M2.5 9.5V13.75H27.5V7.5C27.5 6.17392 26.9732 4.90215 26.0355 3.96447C25.0979 3.02678 23.8261 2.5 22.5 2.5H9.5" stroke="#0076FE" stroke-width="1.5" stroke-linecap="round" stroke-linejoin="round"/>
<path d="M23.125 20.625H19.375" stroke="#0076FE" stroke-width="1.5" stroke-linecap="round"/>
<path d="M15 13.75H27.5V22.5C27.5 23.8261 26.9732 25.0979 26.0355 26.0355C25.0979 26.9732 23.8261 27.5 22.5 27.5H15M15 13.75V27.5M15 13.75H2.5V22.5C2.5 23.8261 3.02678 25.0979 3.96447 26.0355C4.90215 26.9732 6.17392 27.5 7.5 27.5H15" stroke="#0076FE" stroke-width="1.5" stroke-linecap="round" stroke-linejoin="round"/>
<path d="M6.875 22.5L8.75 20.625M8.75 20.625L10.625 18.75M8.75 20.625L10.625 22.5M8.75 20.625L6.875 18.75" stroke="#0076FE" stroke-width="1.5" stroke-linecap="round"/>
<path d="M5.89976 3.73395C4.25611 3.95579 2.95579 5.25611 2.73394 6.89976H2.53184C2.75668 5.1473 4.14731 3.75668 5.89976 3.53184V3.73395Z" fill="#FC0C35" stroke="#FC0C35"/>
</svg>
