<svg width="146" height="37" viewBox="0 0 146 37" fill="none" xmlns="http://www.w3.org/2000/svg">
<g clip-path="url(#clip0_794_114)">
<path d="M40.8836 0H22.2442C20.9675 0 19.9799 0.989296 19.9799 2.27735V21.7617H13.2009C11.9298 21.7617 10.9141 22.6805 10.9141 23.8164C10.9141 24.9522 11.9354 25.8795 13.2009 25.8795H22.2442C23.4872 25.8795 24.4721 24.8902 24.4721 23.6416V13.5796H35.5076C36.644 13.5796 37.5587 12.6607 37.5587 11.5249C37.5587 10.389 36.644 9.47018 35.5076 9.47018H24.4721V4.1122H40.8836C42.02 4.1122 42.9291 3.19337 42.9291 2.05751C42.9291 0.921652 42.0172 0.00281851 40.8836 0.00281851V0Z" fill="#002033"/>
<path d="M22.4445 32.8047H12.9635C11.8271 32.8047 10.918 33.7235 10.918 34.8594C10.918 35.9952 11.8299 36.9141 12.9635 36.9141H22.4445C23.5753 36.9141 24.49 35.9952 24.49 34.8594C24.49 33.7235 23.5753 32.8047 22.4445 32.8047Z" fill="#002033"/>
<path d="M11.8781 9.48438H2.39705C1.26067 9.48438 0.351562 10.4032 0.351562 11.5391C0.351562 12.6749 1.26347 13.5938 2.39705 13.5938H11.8781C13.0089 13.5938 13.9236 12.6749 13.9236 11.5391C13.9236 10.4032 13.0089 9.48438 11.8781 9.48438Z" fill="#002033"/>
</g>
<path d="M144.355 16.6182C143.341 16.6182 142.671 15.7995 142.671 14.562V14.3245C142.671 13.0714 143.304 12.2621 144.342 12.2621C145.38 12.2621 145.998 13.0996 145.998 14.312V14.5495C145.998 15.787 145.399 16.6182 144.355 16.6182ZM144.355 16.1901C145.097 16.1901 145.474 15.6307 145.474 14.5433V14.3058C145.474 13.3246 145.053 12.6777 144.342 12.6777C143.631 12.6777 143.198 13.2652 143.198 14.3183V14.5558C143.198 15.6307 143.65 16.1901 144.355 16.1901ZM141.705 16.5932C141.496 16.5932 141.324 16.4276 141.324 16.2119C141.324 15.9963 141.496 15.8307 141.705 15.8307C141.913 15.8307 142.085 15.9963 142.085 16.2119C142.085 16.4276 141.913 16.5932 141.705 16.5932ZM137.68 16.5619V16.4432L139.363 14.6651C139.75 14.2558 139.974 13.8683 139.974 13.4339C139.974 12.959 139.697 12.6746 139.217 12.6746C138.737 12.6746 138.409 12.9465 138.322 13.6183H137.842C137.907 12.7871 138.412 12.2559 139.217 12.2559C140.021 12.2559 140.498 12.7183 140.498 13.4496C140.498 13.9714 140.164 14.4776 139.644 14.9932L138.475 16.1338H140.52V16.5557H137.68V16.5619Z" fill="#002033"/>
<path d="M53.8435 24.6112C54.439 24.6112 54.9098 24.1362 54.9098 23.5425V19.5333H60.1848C60.7273 19.5333 61.1606 19.0927 61.1606 18.5552C61.1606 18.0177 60.7211 17.5771 60.1848 17.5771H54.9098V14.2335H60.9705C61.5129 14.2335 61.9463 13.7929 61.9463 13.2554C61.9463 12.7179 61.5067 12.2773 60.9705 12.2773H53.8435C53.2294 12.2773 52.7617 12.7523 52.7617 13.3617V23.5519C52.7617 24.1487 53.2356 24.6206 53.8435 24.6206V24.6112Z" fill="#002033"/>
<path d="M66.0042 19.6561L68.1523 14.7032L70.3003 19.6561H66.0073H66.0042ZM74.1755 23.5778C74.1755 23.4372 74.1413 23.2778 74.054 23.1216L69.5147 12.9658C69.2684 12.4221 68.8537 12.0908 68.2396 12.0908H68.1336C67.5194 12.0908 67.086 12.4252 66.8397 12.9658L62.3005 23.1216C62.2132 23.2966 62.1602 23.456 62.1602 23.6122C62.1602 24.1747 62.5997 24.609 63.1547 24.609C63.6099 24.609 63.9746 24.3622 64.1492 23.9278L65.178 21.5654H71.1171L72.1117 23.8591C72.305 24.3153 72.6541 24.609 73.1592 24.609C73.7391 24.609 74.1724 24.1528 74.1724 23.5778H74.1755Z" fill="#002033"/>
<path d="M81.6572 24.7311C83.6338 24.7311 84.9401 24.0999 86.0967 23.0843C86.29 22.9093 86.4459 22.6437 86.4459 22.3156C86.4459 21.7718 85.972 21.3187 85.4327 21.3187C85.1708 21.3187 84.9432 21.425 84.7873 21.5656C83.8988 22.3156 83.0227 22.7374 81.7289 22.7374C79.3876 22.7374 77.6916 20.7906 77.6916 18.3939V18.3595C77.6916 15.9627 79.4063 14.0347 81.7289 14.0347C82.898 14.0347 83.8052 14.4565 84.647 15.1378C84.7873 15.244 84.9962 15.3471 85.2924 15.3471C85.8878 15.3471 86.3586 14.8909 86.3586 14.2972C86.3586 13.9097 86.1653 13.6159 85.9377 13.441C84.8715 12.6191 83.6338 12.0566 81.7445 12.0566C78.0407 12.0566 75.4375 14.9128 75.4375 18.3939V18.4282C75.4375 21.9468 78.0937 24.7311 81.6572 24.7311Z" fill="#002033"/>
<path d="M89.949 24.5239H97.1445C97.6714 24.5239 98.1048 24.102 98.1048 23.5614C98.1048 23.0208 97.6652 22.599 97.1445 22.599H91.0152V19.3085H96.2747C96.8016 19.3085 97.2349 18.8866 97.2349 18.3648C97.2349 17.8429 96.7954 17.3867 96.2747 17.3867H91.0152V14.1993H97.0572C97.5841 14.1993 98.0175 13.7775 98.0175 13.2369C98.0175 12.6963 97.5779 12.2744 97.0572 12.2744H89.949C89.3348 12.2744 88.8672 12.7494 88.8672 13.3587V23.4427C88.8672 24.0583 89.3411 24.527 89.949 24.527V24.5239Z" fill="#002033"/>
<path d="M105.746 14.2652H108.736C109.279 14.2652 109.712 13.8089 109.712 13.2683C109.712 12.7277 109.273 12.2715 108.736 12.2715H100.612C100.051 12.2715 99.6172 12.7277 99.6172 13.2683C99.6172 13.8089 100.057 14.2652 100.612 14.2652H103.583V23.546C103.583 24.1429 104.072 24.6147 104.665 24.6147C105.257 24.6147 105.746 24.1397 105.746 23.546V14.2652Z" fill="#002033"/>
<path d="M112.979 24.5258H120.175C120.702 24.5258 121.135 24.104 121.135 23.5634C121.135 23.0228 120.696 22.6009 120.175 22.6009H114.046V19.3104H119.305C119.832 19.3104 120.265 18.8886 120.265 18.3667C120.265 17.8449 119.826 17.3886 119.305 17.3886H114.046V14.2013H120.088C120.615 14.2013 121.048 13.7794 121.048 13.2388C121.048 12.6982 120.608 12.2764 120.088 12.2764H112.976C112.368 12.2764 111.895 12.7513 111.895 13.3607V23.4446C111.895 24.0602 112.368 24.529 112.976 24.529H112.979V24.5258Z" fill="#002033"/>
<path d="M131.412 16.2951C131.412 17.5388 130.436 18.3419 128.896 18.3419H125.75V14.2265H128.881C130.471 14.2265 131.412 14.9421 131.412 16.2545V16.2889V16.2951ZM133.594 16.1764V16.142C133.594 15.0733 133.227 14.164 132.581 13.4984C131.796 12.7297 130.592 12.2734 129.055 12.2734H124.687C124.073 12.2734 123.605 12.7484 123.605 13.3578V23.548C123.605 24.1448 124.079 24.6167 124.687 24.6167C125.295 24.6167 125.754 24.1417 125.754 23.548V20.2575H128.463L131.434 24.0573C131.68 24.3917 131.995 24.6198 132.481 24.6198C133.008 24.6198 133.51 24.2167 133.51 23.6229C133.51 23.2886 133.37 23.0605 133.161 22.8011L130.82 19.8419C132.463 19.3325 133.598 18.1419 133.598 16.1826L133.594 16.1764Z" fill="#002033"/>
<defs>
<clipPath id="clip0_794_114">
<rect width="43.403" height="36.973" fill="white"/>
</clipPath>
</defs>
</svg>
