<svg width="210" height="58" viewBox="0 0 210 58" fill="none" xmlns="http://www.w3.org/2000/svg">
<rect width="210" height="58" rx="20" fill="#FC0C35"/>
<path d="M32.15 35H29.432V29.456H24.338V35H21.62V22.148H24.338V27.188H29.432V22.148H32.15V35ZM39.1997 24.974C40.5197 24.974 41.5277 25.262 42.2237 25.838C42.9317 26.402 43.2857 27.272 43.2857 28.448V35H41.4137L40.8917 33.668H40.8197C40.5437 34.016 40.2557 34.304 39.9557 34.532C39.6677 34.76 39.3317 34.922 38.9477 35.018C38.5757 35.126 38.1137 35.18 37.5617 35.18C36.9857 35.18 36.4637 35.072 35.9957 34.856C35.5397 34.628 35.1797 34.286 34.9157 33.83C34.6517 33.362 34.5197 32.774 34.5197 32.066C34.5197 31.022 34.8857 30.254 35.6177 29.762C36.3497 29.258 37.4477 28.982 38.9117 28.934L40.6217 28.88V28.448C40.6217 27.932 40.4837 27.554 40.2077 27.314C39.9437 27.074 39.5717 26.954 39.0917 26.954C38.6117 26.954 38.1437 27.026 37.6877 27.17C37.2317 27.302 36.7757 27.47 36.3197 27.674L35.4377 25.856C35.9657 25.58 36.5477 25.364 37.1837 25.208C37.8317 25.052 38.5037 24.974 39.1997 24.974ZM39.5777 30.482C38.7137 30.506 38.1137 30.662 37.7777 30.95C37.4417 31.238 37.2737 31.616 37.2737 32.084C37.2737 32.492 37.3937 32.786 37.6337 32.966C37.8737 33.134 38.1857 33.218 38.5697 33.218C39.1457 33.218 39.6317 33.05 40.0277 32.714C40.4237 32.366 40.6217 31.88 40.6217 31.256V30.446L39.5777 30.482ZM48.389 28.772C48.389 29.192 48.491 29.51 48.695 29.726C48.911 29.942 49.205 30.05 49.577 30.05C50.093 30.05 50.573 29.996 51.017 29.888C51.461 29.768 51.905 29.612 52.349 29.42V25.172H55.031V35H52.349V31.094C51.929 31.322 51.449 31.532 50.909 31.724C50.369 31.904 49.757 31.994 49.073 31.994C48.053 31.994 47.237 31.73 46.625 31.202C46.013 30.674 45.707 29.882 45.707 28.826V25.172H48.389V28.772ZM61.8755 24.974C63.1955 24.974 64.2035 25.262 64.8995 25.838C65.6075 26.402 65.9615 27.272 65.9615 28.448V35H64.0895L63.5675 33.668H63.4955C63.2195 34.016 62.9315 34.304 62.6315 34.532C62.3435 34.76 62.0075 34.922 61.6235 35.018C61.2515 35.126 60.7895 35.18 60.2375 35.18C59.6615 35.18 59.1395 35.072 58.6715 34.856C58.2155 34.628 57.8555 34.286 57.5915 33.83C57.3275 33.362 57.1955 32.774 57.1955 32.066C57.1955 31.022 57.5615 30.254 58.2935 29.762C59.0255 29.258 60.1235 28.982 61.5875 28.934L63.2975 28.88V28.448C63.2975 27.932 63.1595 27.554 62.8835 27.314C62.6195 27.074 62.2475 26.954 61.7675 26.954C61.2875 26.954 60.8195 27.026 60.3635 27.17C59.9075 27.302 59.4515 27.47 58.9955 27.674L58.1135 25.856C58.6415 25.58 59.2235 25.364 59.8595 25.208C60.5075 25.052 61.1795 24.974 61.8755 24.974ZM62.2535 30.482C61.3895 30.506 60.7895 30.662 60.4535 30.95C60.1175 31.238 59.9495 31.616 59.9495 32.084C59.9495 32.492 60.0695 32.786 60.3095 32.966C60.5495 33.134 60.8615 33.218 61.2455 33.218C61.8215 33.218 62.3075 33.05 62.7035 32.714C63.0995 32.366 63.2975 31.88 63.2975 31.256V30.446L62.2535 30.482ZM76.8427 27.188H73.6207V35H70.9387V27.188H67.7167V25.172H76.8427V27.188ZM83.228 28.97C84.236 28.97 85.07 29.078 85.73 29.294C86.39 29.498 86.876 29.816 87.188 30.248C87.512 30.68 87.674 31.22 87.674 31.868C87.674 32.504 87.524 33.056 87.224 33.524C86.936 33.992 86.474 34.358 85.838 34.622C85.202 34.874 84.368 35 83.336 35H78.656V25.172H81.338V28.97H83.228ZM84.992 31.904C84.992 31.52 84.836 31.244 84.524 31.076C84.224 30.908 83.774 30.824 83.174 30.824H81.338V33.146H83.21C83.738 33.146 84.164 33.05 84.488 32.858C84.824 32.666 84.992 32.348 84.992 31.904ZM92.4409 29.114C92.4409 27.662 92.6209 26.432 92.9809 25.424C93.3409 24.404 93.9109 23.594 94.6909 22.994C95.4709 22.382 96.4909 21.968 97.7509 21.752C98.3869 21.644 99.0289 21.554 99.6769 21.482C100.337 21.398 101.015 21.314 101.711 21.23L102.017 23.57C101.717 23.606 101.387 23.648 101.027 23.696C100.667 23.732 100.301 23.774 99.9289 23.822C99.5689 23.858 99.2209 23.9 98.8849 23.948C98.5489 23.996 98.2429 24.038 97.9669 24.074C97.5229 24.146 97.1329 24.248 96.7969 24.38C96.4609 24.5 96.1789 24.674 95.9509 24.902C95.7229 25.13 95.5429 25.442 95.4109 25.838C95.2909 26.222 95.2129 26.72 95.1769 27.332H95.3029C95.4469 27.104 95.6449 26.876 95.8969 26.648C96.1609 26.42 96.4849 26.228 96.8689 26.072C97.2529 25.916 97.6909 25.838 98.1829 25.838C98.9629 25.838 99.6409 26 100.217 26.324C100.793 26.648 101.237 27.128 101.549 27.764C101.861 28.4 102.017 29.192 102.017 30.14C102.017 31.256 101.813 32.186 101.405 32.93C100.997 33.674 100.433 34.238 99.7129 34.622C98.9929 34.994 98.1589 35.18 97.2109 35.18C96.4909 35.18 95.8369 35.048 95.2489 34.784C94.6609 34.52 94.1569 34.13 93.7369 33.614C93.3169 33.098 92.9929 32.462 92.7649 31.706C92.5489 30.95 92.4409 30.086 92.4409 29.114ZM97.3729 33.002C97.7569 33.002 98.0869 32.918 98.3629 32.75C98.6509 32.582 98.8729 32.306 99.0289 31.922C99.1969 31.538 99.2809 31.022 99.2809 30.374C99.2809 29.594 99.1489 28.976 98.8849 28.52C98.6329 28.052 98.1889 27.818 97.5529 27.818C97.1689 27.818 96.8089 27.914 96.4729 28.106C96.1489 28.286 95.8729 28.496 95.6449 28.736C95.4169 28.964 95.2609 29.162 95.1769 29.33C95.1769 29.798 95.2129 30.254 95.2849 30.698C95.3569 31.13 95.4769 31.52 95.6449 31.868C95.8129 32.216 96.0349 32.492 96.3109 32.696C96.5989 32.9 96.9529 33.002 97.3729 33.002ZM108.282 24.992C109.194 24.992 109.974 25.166 110.622 25.514C111.282 25.862 111.792 26.366 112.152 27.026C112.512 27.686 112.692 28.496 112.692 29.456V30.752H106.356C106.38 31.508 106.602 32.102 107.022 32.534C107.454 32.966 108.048 33.182 108.804 33.182C109.44 33.182 110.016 33.122 110.532 33.002C111.048 32.87 111.582 32.672 112.134 32.408V34.478C111.654 34.718 111.144 34.892 110.604 35C110.076 35.12 109.434 35.18 108.678 35.18C107.694 35.18 106.824 35 106.068 34.64C105.312 34.268 104.718 33.71 104.286 32.966C103.854 32.222 103.638 31.286 103.638 30.158C103.638 29.006 103.83 28.052 104.214 27.296C104.61 26.528 105.156 25.952 105.852 25.568C106.548 25.184 107.358 24.992 108.282 24.992ZM108.3 26.9C107.784 26.9 107.352 27.068 107.004 27.404C106.668 27.74 106.47 28.262 106.41 28.97H110.172C110.172 28.574 110.1 28.22 109.956 27.908C109.824 27.596 109.62 27.35 109.344 27.17C109.068 26.99 108.72 26.9 108.3 26.9ZM118.863 35.18C117.891 35.18 117.063 35.006 116.379 34.658C115.695 34.298 115.173 33.746 114.813 33.002C114.453 32.258 114.273 31.304 114.273 30.14C114.273 28.94 114.477 27.962 114.885 27.206C115.293 26.45 115.857 25.892 116.577 25.532C117.309 25.172 118.149 24.992 119.097 24.992C119.769 24.992 120.351 25.058 120.843 25.19C121.347 25.322 121.785 25.478 122.157 25.658L121.365 27.728C120.945 27.56 120.549 27.422 120.177 27.314C119.817 27.206 119.457 27.152 119.097 27.152C118.629 27.152 118.239 27.266 117.927 27.494C117.615 27.71 117.381 28.04 117.225 28.484C117.081 28.916 117.009 29.462 117.009 30.122C117.009 30.77 117.087 31.31 117.243 31.742C117.411 32.162 117.651 32.48 117.963 32.696C118.275 32.9 118.653 33.002 119.097 33.002C119.661 33.002 120.159 32.93 120.591 32.786C121.023 32.63 121.443 32.42 121.851 32.156V34.442C121.443 34.706 121.011 34.892 120.555 35C120.111 35.12 119.547 35.18 118.863 35.18ZM133.041 25.172V35H130.359V27.188H126.795V35H124.113V25.172H133.041ZM144.657 35H141.975V27.188H139.509C139.389 28.628 139.239 29.858 139.059 30.878C138.891 31.886 138.675 32.708 138.411 33.344C138.159 33.98 137.835 34.448 137.439 34.748C137.043 35.036 136.557 35.18 135.981 35.18C135.669 35.18 135.387 35.156 135.135 35.108C134.883 35.06 134.655 34.988 134.451 34.892V32.75C134.583 32.798 134.721 32.84 134.865 32.876C135.009 32.912 135.159 32.93 135.315 32.93C135.483 32.93 135.639 32.864 135.783 32.732C135.939 32.6 136.083 32.366 136.215 32.03C136.359 31.694 136.491 31.232 136.611 30.644C136.731 30.056 136.839 29.318 136.935 28.43C137.043 27.53 137.139 26.444 137.223 25.172H144.657V35ZM151.489 24.974C152.809 24.974 153.817 25.262 154.513 25.838C155.221 26.402 155.575 27.272 155.575 28.448V35H153.703L153.181 33.668H153.109C152.833 34.016 152.545 34.304 152.245 34.532C151.957 34.76 151.621 34.922 151.237 35.018C150.865 35.126 150.403 35.18 149.851 35.18C149.275 35.18 148.753 35.072 148.285 34.856C147.829 34.628 147.469 34.286 147.205 33.83C146.941 33.362 146.809 32.774 146.809 32.066C146.809 31.022 147.175 30.254 147.907 29.762C148.639 29.258 149.737 28.982 151.201 28.934L152.911 28.88V28.448C152.911 27.932 152.773 27.554 152.497 27.314C152.233 27.074 151.861 26.954 151.381 26.954C150.901 26.954 150.433 27.026 149.977 27.17C149.521 27.302 149.065 27.47 148.609 27.674L147.727 25.856C148.255 25.58 148.837 25.364 149.473 25.208C150.121 25.052 150.793 24.974 151.489 24.974ZM151.867 30.482C151.003 30.506 150.403 30.662 150.067 30.95C149.731 31.238 149.563 31.616 149.563 32.084C149.563 32.492 149.683 32.786 149.923 32.966C150.163 33.134 150.475 33.218 150.859 33.218C151.435 33.218 151.921 33.05 152.317 32.714C152.713 32.366 152.911 31.88 152.911 31.256V30.446L151.867 30.482ZM166.456 27.188H163.234V35H160.552V27.188H157.33V25.172H166.456V27.188ZM170.951 25.172V28.952H174.695V25.172H177.377V35H174.695V30.95H170.951V35H168.269V25.172H170.951ZM189.115 30.068C189.115 30.884 189.001 31.61 188.773 32.246C188.557 32.882 188.239 33.422 187.819 33.866C187.411 34.298 186.913 34.628 186.325 34.856C185.737 35.072 185.071 35.18 184.327 35.18C183.643 35.18 183.007 35.072 182.419 34.856C181.843 34.628 181.345 34.298 180.925 33.866C180.505 33.422 180.175 32.882 179.935 32.246C179.707 31.61 179.593 30.884 179.593 30.068C179.593 28.976 179.785 28.058 180.169 27.314C180.553 26.558 181.105 25.982 181.825 25.586C182.545 25.19 183.397 24.992 184.381 24.992C185.305 24.992 186.121 25.19 186.829 25.586C187.537 25.982 188.095 26.558 188.503 27.314C188.911 28.058 189.115 28.976 189.115 30.068ZM182.329 30.068C182.329 30.716 182.395 31.262 182.527 31.706C182.671 32.138 182.893 32.468 183.193 32.696C183.493 32.912 183.883 33.02 184.363 33.02C184.843 33.02 185.227 32.912 185.515 32.696C185.815 32.468 186.031 32.138 186.163 31.706C186.307 31.262 186.379 30.716 186.379 30.068C186.379 29.42 186.307 28.88 186.163 28.448C186.031 28.016 185.815 27.692 185.515 27.476C185.215 27.26 184.825 27.152 184.345 27.152C183.637 27.152 183.121 27.398 182.797 27.89C182.485 28.37 182.329 29.096 182.329 30.068Z" fill="white"/>
<path d="M194 8C198.418 8 202 11.5817 202 16" stroke="white" stroke-width="2" stroke-linecap="round"/>
<path d="M16 50C11.5817 50 8 46.4183 8 42" stroke="white" stroke-width="2" stroke-linecap="round"/>
</svg>
