<svg width="44" height="37" viewBox="0 0 44 37" fill="none" xmlns="http://www.w3.org/2000/svg">
<g clip-path="url(#clip0_2072_115)">
<path d="M40.8836 0H22.2442C20.9675 0 19.9799 0.989296 19.9799 2.27735V21.7617H13.2009C11.9298 21.7617 10.9141 22.6805 10.9141 23.8164C10.9141 24.9522 11.9354 25.8795 13.2009 25.8795H22.2442C23.4872 25.8795 24.4721 24.8902 24.4721 23.6416V13.5796H35.5076C36.644 13.5796 37.5587 12.6607 37.5587 11.5249C37.5587 10.389 36.644 9.47018 35.5076 9.47018H24.4721V4.1122H40.8836C42.02 4.1122 42.9291 3.19337 42.9291 2.05751C42.9291 0.921652 42.0172 0.00281851 40.8836 0.00281851V0Z" fill="#002033"/>
<path d="M22.4445 32.8047H12.9635C11.8271 32.8047 10.918 33.7235 10.918 34.8594C10.918 35.9952 11.8299 36.9141 12.9635 36.9141H22.4445C23.5753 36.9141 24.49 35.9952 24.49 34.8594C24.49 33.7235 23.5753 32.8047 22.4445 32.8047Z" fill="#002033"/>
<path d="M11.8781 9.48438H2.39705C1.26067 9.48438 0.351562 10.4032 0.351562 11.5391C0.351562 12.6749 1.26347 13.5938 2.39705 13.5938H11.8781C13.0089 13.5938 13.9236 12.6749 13.9236 11.5391C13.9236 10.4032 13.0089 9.48438 11.8781 9.48438Z" fill="#002033"/>
</g>
<defs>
<clipPath id="clip0_2072_115">
<rect width="43.403" height="36.973" fill="white"/>
</clipPath>
</defs>
</svg>
